/* XPM */
static char *bob_resized[] = {
/* columns rows colors chars-per-pixel */
"50 50 176 2 ",
"   c #020101",
".  c #0A0402",
"X  c #090807",
"o  c #060709",
"O  c #0C0C0C",
"+  c #1B0301",
"@  c #110A07",
"#  c #180D07",
"$  c #100D0C",
"%  c #15110F",
"&  c #050D14",
"*  c #080B11",
"=  c #0E1011",
"-  c #05141C",
";  c #0C131B",
":  c #131313",
">  c #181717",
",  c #1C1B1B",
"<  c #200401",
"1  c #340703",
"2  c #20100E",
"3  c #2D1C14",
"4  c #221D1A",
"5  c #321E13",
"6  c #23211E",
"7  c #3C2619",
"8  c #252424",
"9  c #2A2929",
"0  c #382C27",
"q  c #38312C",
"w  c #363434",
"e  c #3B3531",
"r  c #3E3834",
"t  c #470904",
"y  c #480A06",
"u  c #58190A",
"i  c #6C0F07",
"p  c #68140C",
"a  c #7F1308",
"s  c #542105",
"d  c #582E19",
"f  c #632309",
"g  c #7A2C0C",
"h  c #4F3120",
"j  c #45332D",
"k  c #583324",
"l  c #413C37",
"z  c #653F29",
"x  c #74312A",
"c  c #49403A",
"v  c #65412C",
"b  c #62493C",
"n  c #764A39",
"m  c #38384A",
"M  c #124159",
"N  c #174863",
"B  c #114D69",
"V  c #14506C",
"C  c #384E61",
"Z  c #3E5467",
"A  c #454444",
"S  c #4E4945",
"D  c #514943",
"F  c #5C544D",
"G  c #525252",
"H  c #5D5956",
"J  c #645248",
"K  c #635A54",
"L  c #6B5F57",
"P  c #6C625B",
"I  c #72645C",
"U  c #41596E",
"Y  c #676362",
"T  c #686665",
"R  c #6A6969",
"E  c #7A6D64",
"W  c #777676",
"Q  c #7C7B7B",
"!  c #82170C",
"~  c #92160A",
"^  c #9B180B",
"/  c #911A11",
"(  c #A2190B",
")  c #B91C0D",
"_  c #D4200F",
"`  c #D9210F",
"'  c #C5281A",
"]  c #DE2210",
"[  c #E1210F",
"{  c #E02210",
"}  c #C13B32",
"|  c #E23D32",
" . c #905A3B",
".. c #C2483E",
"X. c #E3493F",
"o. c #9C6242",
"O. c #8D665B",
"+. c #A56845",
"@. c #B06F4A",
"#. c #BA764F",
"$. c #A47051",
"%. c #BB7750",
"&. c #B47855",
"*. c #BD7953",
"=. c #BE7E59",
"-. c #826F62",
";. c #84776D",
":. c #83786F",
">. c #8A7C72",
",. c #BF815C",
"<. c #8F8379",
"1. c #92857A",
"2. c #C1825C",
"3. c #C28864",
"4. c #1279A5",
"5. c #207AA0",
"6. c #476A83",
"7. c #486B85",
"8. c #1485B5",
"9. c #1287B8",
"0. c #168BBC",
"q. c #10A4DF",
"w. c #0FA6E2",
"e. c #0EA8E5",
"r. c #10A6E2",
"t. c #10A8E4",
"y. c #8A8786",
"u. c #908D8C",
"i. c #9F9084",
"p. c #959494",
"a. c #9A9695",
"s. c #9C9A9A",
"d. c #A29387",
"f. c #A39589",
"g. c #A09E9E",
"h. c #B4A598",
"j. c #B9A89A",
"k. c #A3A2A2",
"l. c #AAA6A5",
"z. c #AEACAB",
"x. c #B4B2B2",
"c. c #B8B6B6",
"v. c #BEB9B7",
"b. c #BBBABA",
"n. c #D2A88C",
"m. c #CEBBAC",
"M. c #DAC6B6",
"N. c #E8CAB5",
"B. c #EACBB5",
"V. c #E2CBB9",
"C. c #EBCEB9",
"Z. c #C5C4C4",
"A. c #C8C7C7",
"S. c #CDCDCD",
"D. c #D0CECE",
"F. c #D5D4D4",
"G. c #D8D7D7",
"H. c #D9D8D7",
"J. c #DBDADA",
"K. c #E9D5C4",
"L. c #EAD5C5",
"P. c #EEDAC9",
"I. c #F2D6C2",
"U. c #F2DCCB",
"Y. c #F8DDCB",
"T. c #E1DFDF",
"R. c #F6E1CF",
"E. c #F8E0CE",
"W. c #FDE7D5",
"Q. c #FFE8D6",
"!. c #FFEBD9",
"~. c #E5E4E4",
"^. c #E8E7E7",
"/. c #ECECEC",
"(. c none",
"). c none",
/* pixels */
").).).).).).).).).).).).).).).).).).).).).).).).).).).).).).).).).).).).).).).).).).).).).).).).).).",
").).).).).).).).).).).).).).).).).).).).).).).).).).).).).).).).).).).).).).).).).).).).).).).).).).",
").).).).).).).).).).).).).).).).).).).).).).).).).).).).).).).).).).).).).).).).).).).).).).).).).).",
").).).).).).).).).).).).).).).).).).).).).).).).).).).).).).).).).).).).).).).).).).).).).).).).).).",
").).).).).).).).).).).).).).).).).Z.W W W W W W W W W W W W b.).).).).).).).).).).).).).).).).).).).",
").).).).).).).).).).).).).).).).).u.          .   .       X p.).).).).).).).).).).).).).).).).).).).",
").).).).).).).).).).(.z.p.a.a.p.a.E v v v v z v z z z z z v -.p.p.p.p.p.l.(.).).).).).).).).).).).).",
").).).).).).).).).).(.A O O O O o k *.*.*.%.%.%.*.%.*.*.%.*.v O O O O O w ^.).).).).).).).).).).).).",
").).).).).).).(.c.x.l.J h h h h d n %.%.%.%.%.%.#.%.%.%.%.%. .h h h h h b l.x.c./.).).).).).).).).).",
").).).).).).).H.q = 4 o.%.%.%.%.*.%.%.%.%.%.%.%.%.%.%.%.%.%.#.#.%.%.%.%.o.4 : , A.).).).).).).).).).",
").).).).).).).H.9   @  .*.%.#.*.%.%.%.%.%.%.%.%.%.%.%.%.%.%.#.#.%.%.%.*.o.$   : Z.).).).).).).).).).",
").).).).).).).J.9   # o.%.#.#.*.%.%.%.%.%.%.%.%.%.%.%.%.%.%.%.%.%.%.%.%.o.#   O Z.).).).).).).).).).",
").).).).(.F.H.v.j 5 7 $.3.3.3.,.%.%.%.%.%.%.%.%.%.%.*.%.%.%.%.%.%.%.%.%.o.h 5 7 z.H.G./.).).).).).).",
").).).).b.8 , 0 +.@.@.N.E.U.3.#.%.%.%.%.#.#.%.%.%.#.#.#.%.%.%.%.%.%.%.%.#.@.@.+.0 6 8 l.).).).).).).",
").).).).x.:   3 &.2.3.C.Q.W.n.2.2.2.2.2.*.%.#.#.%.%.*.#.#.*.%.%.%.%.%.%.#.=.,.&.3   o s.).).).).).).",
").).).).c.%   q N.C.I.W.W.W.Y.C.I.I.C.I.M.*.#.*.#.%.#.%.#.#.%.%.%.%.%.#.3.B.L.N.0   o k.).).).).).).",
").).).).c.$   e L.Q.Q.W.W.Q.W.W.!.Q.Q.!.B.,.*.*.*.=.*.*.*.*.*.=.=.*.*.*.3.R.Q.P.0   o g.).).).).).).",
").).).).x.:   e L.!.W.W.W.W.W.W.Q.W.W.W.R.B.B.B.B.N.B.B.C.N.B.N.B.B.B.B.C.W.W.P.0   o g.).).).).).).",
").).).).x., O l L.W.W.W.W.!.W.!.W.Q.W.W.W.Q.Q.Q.!.Q.Q.W.Q.Q.!.Q.Q.Q.!.Q.Q.W.W.P.w O : k.).).).).).).",
").).).).~.x.x.k.P F P V.W.W.W.W.Q.h.F F :.R.Q.W.W.Q.W.1.F F h.Q.W.W.W.Q.K.L G F a.x.x.J.).).).).).).",
").).).).).).).H.9 * 6 m.!.!.W.W.!.<.    l U.Q.W.Q.Q.E.F   O <.Q.W.W.!.!.M.8 $ , A.).).).).).).).).).",
").).).).).).)./.g.p.p.>.;.;.m.W.!.1.    l R.Q.W.W.Q.E.F   O 1.Q.!.M.:.;.;.p.a.s.~.).).).).).).).).).",
").).).).).).).).).).(.A @ @ f.!.!.1.X X l U.Q.Q.W.Q.R.F X O 1.!.!.h.# . w /.).).).).).).).).).).).).",
").).).).).).)./.l.k.g.x i p O.i.f.>.E E 1.R.Q.Q.W.W.W.i.E E >.d.f.O.p i x p.k.k.^.).).).).).).).).).",
").).).).).).).J.9 O 2 ) { { p O O P !.!.!.!.!.!.Q.!.!.!.!.!.<.O O u ` [ ) 2 = , A.).).).).).).).).).",
").).).).^.c.b.l.K c D ' { { ! t t n j.j.j.j.j.j.j.j.j.j.j.j.O.y t a ] [ ' D D D s.b.c.J.).).).).).).",
").).).).c.> O r K.W.Y.X.[ { { ] ] ! O $ O $ O O O % O O $ $ a ` ] ] { [ | I.W.L.e O % k.).).).).).).",
").~.D.F.g.l e K P.Q.U...) ) _ { { / 1 1 1 1 1 1 1 1 1 1 1 1 ~ { { _ ) ) } I.W.U.F e e p.F.D.T.).).).",
").u., , L L.P.U.W.W.U.c + + ^ { { ` ` _ ` _ _ _ _ _ _ _ _ _ ` ] { ( < + j L.Q.W.Y.P.U.I , , Q ).).).",
").y.X   K W.Q.W.Q.Q.P.c   . ~ { { { ] ] { ] ] ] ] { ] ] ] { { { { ( .   0 K.Q.W.Q.Q.Q.L   X W ).).).",
").y.X . H W.Q.W.!.Q.U.c     / { ] ] ] { ] ] ] { { ] { { { { ] { { ^ .   q L.Q.Q.Q.W.W.L   X W ).).).",
").u., > K P.U.U.P.P.K.A & = ! ` ` ` _ ` _ ` ` _ ` _ ` _ _ _ _ _ ] / : ; w M.U.U.U.U.U.I : : Q ).).).",
").~.S.S.k.D D D D D S 5.9.8.m y t t t t t t t t t t t t t t t t t m 8.8.5.S D D D D S a.S.S.~.).).).",
").).).).b., > : X . - 8.t.r.N * O & * * * * * * * * * * * * * * O M q.e.0.; X X : : > k.).).).).).).",
").).).).^.b.b.g.,   - 8.r.q.0.4.4.4.4.4.4.4.4.4.4.4.4.4.4.4.4.4.4.8.q.w.0.;   O u.b.b.~.).).).).).).",
").).).).).).).J.9   - 8.r.q.r.r.w.w.w.w.w.t.t.t.r.t.r.r.t.t.w.w.w.q.q.w.9.;   = A.).).).).).).).).).",
").).).).).).).H.9   - 8.r.q.q.q.q.q.q.w.0.V B B B B V 0.q.q.q.q.q.q.q.w.9.;   O Z.).).).).).).).).).",
").).).).).).).H.9   - 9.e.w.w.w.w.w.w.e.8.o         & 4.w.w.w.w.w.w.w.w.0.;   = Z.).).).).).).).).).",
").).).).).).).H.9   O Z 7.6.6.6.6.6.6.6.U .         o C 7.6.6.6.7.6.6.7.U *   : Z.).).).).).).).).).",
").).).).).).).H.8   . f g g g g g g g g p .           u g g g g g g g g f .   O Z.).).).).).).).).).",
").).).).).).).~.Q T T k u s s s u s s s h Y T R R R R k s s s s s s s s d Y R R H.).).).).).).).).).",
").).).).).).).).).)./.A . . . . . . . . A /.).).).).(.H . . .   . . . . w ~.).).).).).).).).).).).).",
").).).).).).).).).).(.W G G G G G G G G Q (.).).).).).y.G G G G G G G G R /.).).).).).).).).).).).).",
").).).).).).).).).).).(.(.(.(.(.(.(.(.(.(.).).).).).).(.(.(.(.(.(.).(.(.(.).).).).).).).).).).).).).",
").).).).).).).).).).).).).).).).).).).).).).).).).).).).).).).).).).).).).).).).).).).).).).).).).).",
").).).).).).).).).).).).).).).).).).).).).).).).).).).).).).).).).).).).).).).).).).).).).).).).).).",
").).).).).).).).).).).).).).).).).).).).).).).).).).).).).).).).).).).).).).).).).).).).).).).).).).",
").).).).).).).).).).).).).).).).).).).).).).).).).).).).).).).).).).).).).).).).).).).).).).).).).).",
").).).).).).).).).).).).).).).).).).).).).).).).).).).).).).).).).).).).).).).).).).).).).).).).).).",
").).).).).).).).).).).).).).).).).).).).).).).).).).).).).).).).).).).).).).).).).).).).).).).).).)."
};
