/* XPM */
static char *coin7_resized[] = {
/* columns rows colors chars-per-pixel */
"50 50 206 2 ",
"   c None",
".  c #3D2A03",
"X  c #3D2904",
"o  c #412B01",
"O  c #4C3402",
"+  c #483408",
"@  c #533401",
"#  c #5B3A02",
"$  c #523C0C",
"%  c #563B07",
"&  c #453413",
"*  c #4A3813",
"=  c #4C3B1B",
"-  c #4B3718",
";  c #503D1F",
":  c #633D03",
">  c #4E3E23",
",  c #5D4002",
"<  c #5B410B",
"1  c #5B4412",
"2  c #5A461B",
"3  c #5C481C",
"4  c #5A4515",
"5  c #604202",
"6  c #6D4C07",
"7  c #734906",
"8  c #79560B",
"9  c #72520C",
"0  c #6B541C",
"q  c #73591C",
"w  c #544324",
"e  c #5C4C2E",
"r  c #5C4E30",
"t  c #5F5235",
"y  c #6A5528",
"u  c #625336",
"i  c #645438",
"p  c #6C5C37",
"a  c #725D37",
"s  c #664D20",
"d  c #7C6223",
"f  c #7B663A",
"g  c #6D5F43",
"h  c #796C57",
"j  c #776B4C",
"k  c #834C02",
"l  c #804D0B",
"z  c #8A5908",
"x  c #975B03",
"c  c #A15E01",
"v  c #8C650D",
"b  c #946409",
"n  c #906A0F",
"m  c #97620A",
"M  c #926915",
"N  c #9D7311",
"B  c #A86B06",
"V  c #BA6B03",
"C  c #B47B0D",
"Z  c #BA7D0C",
"A  c #B1760D",
"S  c #AB720F",
"D  c #866927",
"F  c #917532",
"G  c #947937",
"H  c #94772F",
"J  c #CA7802",
"K  c #D67F03",
"L  c #C26D04",
"P  c #937C4A",
"I  c #927B45",
"U  c #877759",
"Y  c #82704E",
"T  c #B5851C",
"R  c #9F8239",
"E  c #9F8132",
"W  c #A4863A",
"Q  c #C6850B",
"!  c #CB8A0D",
"~  c #DA8202",
"^  c #DA950D",
"/  c #CF9214",
"(  c #ED8D02",
")  c #E28802",
"_  c #F08E03",
"`  c #EE9105",
"'  c #EF930A",
"]  c #E69A0C",
"[  c #EA9D0E",
"{  c #E0970C",
"}  c #F19306",
"|  c #F49C0B",
" . c #F49909",
".. c #E69B11",
"X. c #EE9916",
"o. c #F19A15",
"O. c #DBA31C",
"+. c #EFA00E",
"@. c #F4A30E",
"#. c #FCA50E",
"$. c #FCA80E",
"%. c #EAAC1D",
"&. c #EBA414",
"*. c #F6A412",
"=. c #FDA710",
"-. c #F6AA15",
";. c #FDAC13",
":. c #F9AE19",
">. c #F4A61D",
",. c #FEB117",
"<. c #FCB41B",
"1. c #FEBA1E",
"2. c #F3B41D",
"3. c #EEB11A",
"4. c #D2A130",
"5. c #F2A424",
"6. c #F8AF20",
"7. c #F6AC2D",
"8. c #FDB421",
"9. c #FEBB21",
"0. c #FDBE2B",
"q. c #F7B428",
"w. c #F6AF35",
"e. c #F4B135",
"r. c #FDBE33",
"t. c #F5B33A",
"y. c #F6B937",
"u. c #E9B027",
"i. c #FDC02D",
"p. c #FDC235",
"a. c #FDC43C",
"s. c #97804C",
"d. c #9B8244",
"f. c #9B8454",
"g. c #A68842",
"h. c #B59647",
"j. c #A58D4E",
"k. c #BFA24D",
"l. c #91846D",
"z. c #978665",
"x. c #918673",
"c. c #958B79",
"v. c #958C75",
"b. c #938972",
"n. c #B79D60",
"m. c #A0957F",
"M. c #C9A549",
"N. c #CBAB52",
"B. c #C9A955",
"V. c #D1AE55",
"C. c #DDBB59",
"Z. c #DFB342",
"A. c #E8BB48",
"S. c #F8BE49",
"D. c #E1BD5B",
"F. c #FDC543",
"G. c #FDC845",
"H. c #FDCB4C",
"J. c #FBC24B",
"K. c #E6C25E",
"L. c #FECD53",
"P. c #FDCD5A",
"I. c #F7C755",
"U. c #FFD055",
"Y. c #FED15B",
"T. c #ECC661",
"R. c #EEC962",
"E. c #F4CD65",
"W. c #FDCF63",
"Q. c #FED465",
"!. c #FED569",
"~. c #FBD468",
"^. c #E9C773",
"/. c #FDD97D",
"(. c #A39B8B",
"). c #AAA394",
"_. c #AEA89A",
"`. c #B1AA9B",
"'. c #B6B1A4",
"]. c #BAB4A5",
"[. c #BEB8AB",
"{. c #C2BCAE",
"}. c #C4BEB4",
"|. c #E9CD8C",
" X c #E4C885",
".X c #FBD887",
"XX c #FEDE9B",
"oX c #F1D892",
"OX c #FEE29C",
"+X c #C8C3B8",
"@X c #D6D2CA",
"#X c #D7D2C9",
"$X c #D3CDC5",
"%X c #E2DEDA",
"&X c #E0DCD6",
"*X c #E4E2DC",
"=X c #E7E5E0",
"-X c #E8E6E1",
";X c #ECEAE6",
":X c #EEECE9",
">X c #F0EEEB",
",X c #F2F1EF",
"<X c #F5F4F2",
"1X c none",
"2X c none",
"3X c none",
/* pixels */
"2X2X2X2X2X2X2X2X2X2X2X2X2X2X2X2X,X;X;X;X;X;X;X;X;X;X;X;X;X;X<X2X2X2X2X2X2X2X2X2X2X2X2X2X2X2X        ",
"2X2X2X2X2X2X2X2X2X2X2X2X2X2X2X1Xv.r i i i i i i i i t i i i `.2X2X2X2X2X2X2X2X2X2X2X2X2X2X2X        ",
"2X2X2X2X2X2X2X2X2X2X2X2X2X2X;X$XY < 1 1 1 1 1 1 1 1 < . + 4 v.#X:X2X2X2X2X2X2X2X2X2X2X2X2X2X        ",
"2X2X2X2X2X2X2X2X2X2X2X2X2X2X).* h.E.R.K.T.T.T.T.K.R.B.+ a |.f.= +X2X2X2X2X2X2X2X2X2X2X2X2X2X        ",
"2X2X2X2X2X2X2X2X2X2X2X2X-X].z.d M.H.L.H.L.L.L.Y.~.U.t.v D n.s.f m.[.,X2X2X2X2X2X2X2X2X2X2X2X        ",
"2X2X2X2X2X2X2X2X2X2X2X2X+X& F ~.a.1.1.9.9.1.1.H.~.i.2.$.Z . f.oXa = *X2X2X2X2X2X2X2X2X2X2X2X        ",
"2X2X2X2X2X2X2X2X2X2X2X2X[.. F Q.r.,.9.9.1.i.H.G.F.i.1.;.Z . W /.h.g.l._.3X2X2X2X2X2X2X2X2X2X        ",
"2X2X2X2X2X2X2X2X2X2X2X1X[.* H ~.0.=.<.9.9.a.!.a.1.1.,.$.T . E E.Q.K.$ p ;X1X2X2X2X2X2X2X2X2X        ",
"2X2X2X2X2X2X2X2X2X2X;Xh j M.Z.p.9.,.9.0.U.G.a.9.1.1.1.<.&.Q M q N.~.N.j.p _.2X2X2X2X2X2X2X2X        ",
"2X2X2X2X2X2X2X2X2X-X+Xy d P.F.1.9.1.<.0.I.F.<.<.2.1.9.1.1.;.B % h.T.!.V.4 l.&X,X2X2X2X2X2X2X        ",
"2X2X2X2X2X2X2X2X2Xh y B.A.p.9.1.9.9. .' X.' ` ` } ,.9.1.9.<.%.^ 8 s  XoX Xf.e {.2X2X2X2X2X2X        ",
"2X2X2X2X2X2X2X2X3Xg $ C.U.9.9.1.:.-.| } } } } o.5.:.:.1.1.9.,.@.7 *  XOXOXf.X '.2X2X2X2X2X2X        ",
"2X2X2X2X2X2X2X2X1Xg $ C.U.9.9.9.| ` #.=.$.$.$.J.W.>.` 8.1.9.,.@.6 *  XOXOXf.. '.2X2X2X2X2X2X        ",
"2X2X2X2X2X2X2X+X(.P E A.F.9.,.*.| | ;.,.,.,.,.r.G.t.7.*.-.1.1.-.A n d.n..XB.F z.(.;X2X2X2X2X        ",
"2X2X2X2X2X2X1Xx.X M.Q.0.1.1.@._ #.;.<.9.1.1.1.1.9.P.I.X.| 1.1.9.,.] O 0 E.!.!.d & @X2X2X2X2X        ",
"2X2X2X2X2X2X2Xx.X k.Y.0.,.@.| @.;.<.1.9.9.1.1.9.9.p.a.J.e.| e.H.8.+.O 0 ~.!.~.d * @X2X2X2X2X        ",
"2X2X2X2X2X<X;Xl.$ M.U.i.;.(  .;.,.9.1.1.9.1.1.1.1.1.0.Q.J.( e.!.q.[ , q D.E.!.D 2 +X:X2X2X2X        ",
"2X2X2X2X2X}.e d.C.y.0.9.:.}  .=.<.1.9.<.;.,.1.9.1.1.0.Q.S.( t.!.p.,.{ C 4 W !.K.N.a h ;X2X2X        ",
"2X2X2X2X2X].X R !.p.<.<.*.} | ;.<.9.9.1.;.,.1.1.1.1.0.Q.I.X.t.I.r.1.;.Q . F !.!.R.4 t :X2X2X        ",
"2X2X2X2X2X].X R ~.p.1.} } $.;.1.9.1.1.1.1.1.1.1.1.1.0.Q.!.W.w.' ;.1.;.Q o F !.!.K.4 t :X2X2X        ",
"2X2X2X2X2X].. R !.H.p.} } $.,.9.1.1.1.1.9.1.1.1.9.p.G.Q.!.!.t.( :.1.;.Q . G /./.^.4 u :X2X2X        ",
"2X2X2X2X2X].. W !.Q.P.X.} $.,.9.9.1.9.1.1.9.1.1.9.P.!.!.!.!.w.( -.1.;.Q o G XXXX|.3 u :X2X2X        ",
"2X2X2X2X2X].. R !.H.r.' } $.<.9.1.1.1.1.1.1.1.a.L.Q.Q.F.H.!.w.( ;.1.=.Q o I OXOX|.3 u :X2X2X        ",
"2X2X2X2X2X].. R ~.p.,.` } $.,.9.9.1.9.1.9.9.9.L.!.Q.P.9.p.!.w.( ;.1.;.Q o I OXOX|.3 u :X2X2X        ",
"2X2X2X2X2X].. W Q.p.<.} } $.,.9.1.9.9.9.1.a.U.Q.!.a.i.1.p.!.e.` :.1.;.Q o I OXOX|.2 i :X2X2X        ",
"2X2X2X2X2X].X R ~.p.<.} } $.;.1.1.1.1.9.i.G.!.Q.P.i.1.1.p.Q.e.` :.<.;.Q . G .X.X^.1 u :X2X2X        ",
"2X2X2X2X2X].. R Q.p.<.` } $.$.=.<.1.1.i.U.!.Q.F.9.9.1.9.p.~.e.( ;.1.;.Q o M i.i.u.< i ;X2X2X        ",
"2X2X2X2X2X].. R ~.p.,.} } $.=.,.1.9.r.G.~.Q.L.p.9.1.1.1.p.~.e.( ,.1.;.Q o n 1.1.%., i :X2X2X        ",
"2X2X2X2X2X].. W Q.p.<.} } $.,.1.1.9.P.!.Q.H.i.1.9.9.1.1.p.~.e._ ,.1.=.Q o n 1.9.%., i :X2X2X        ",
"2X2X2X2X2X].X R ~.p.<.} } $.,.9.a.H.Q.Q.G.p.1.1.1.1.9.1.a.!.w.( -.1.;.Q o n 1.1.%., i :X2X2X        ",
"2X2X2X2X2X].. R ~.p.<.} } =.;.9.L.!.Q.L.9.1.1.1.9.9.9.9.r.Q.e.} ;.1.;.Q o n 9.1.%., i ;X2X2X        ",
"2X2X2X2X2X].X R ~.p.1.:.;.} #.,.J.!.a.r.1.1.1.1.1.1.0.L.S.>.>.:.1.1.;.Q . n 9.9.%.# t :X2X2X        ",
"2X2X2X2X2X}.w d.D.y.i.9.,.`  .$.F.P.0.1.1.1.1.1.9.1.i.Q.S.( *.1.1.2...Z % N 1.%./ y h :X2X2X        ",
"2X2X2X2X2X,X*Xl.< M.U.i.-.(  .=.9.0.1.9.1.1.1.1.1.1.i.~.J.( @.1.;..., 9 O.3.9.v 4 +X;X1X2X2X        ",
"2X2X2X2X2X2X2Xx.. k.Q.F.q.| @.#.;.<.9.9.1.1.1.1.1.r.p.J.t.o.6.p.<.] @ 6 2.1.8.8 * @X2X2X2X2X        ",
"2X2X2X2X2X2X2Xx.. M.!.!.L.9.@.( #.;.<.9.1.1.1.1.9.P.P.X.| <.F.!.0.+.+ 6 2.9.1.8 & @X2X2X2X2X        ",
"2X2X2X2X2X2X1X}.v.s.W R.L.9.<.*.@.| ;.<.F.F.G.F.F.t.e.*.2.G.G.G.T b z B | / N P (.*X2X2X2X2X        ",
"2X2X2X2X2X2X2X2X1Xg $ C.L.9.9.9.o.( #.8.Q.~.~.~.Q.o.` q.a.~.G.2.9 O K ( _ x X '.2X2X2X2X2X2X        ",
"2X2X2X2X2X2X2X2X1Xg $ D.U.9.9.1.,.-. .} 5.5.5.5.5.>.<.H.H.p.9.-.6 O K ( _ c X '.2X2X2X2X2X2X        ",
"2X2X2X2X2X2X2X2X1Xh 3 N.I.0.9.1.1.1.| } ( } ` ` } <.p.Y.H.1.-.^ 7 # ~ ( K m = {.2X2X2X2X2X2X        ",
"2X2X2X2X2X2X2X2X2X%X{.y D I.G.9.1.1.<.,.2.<.,.,.2.H.L.p.9.;.S # B J _ L # U @X:X2X2X2X2X2X2X        ",
"2X2X2X2X2X2X2X2X2X2X*Xw 0 E.H.9.1.1.9.1.1.1.1.0.p.L.L.0.,.$.b X V ) J S u ).2X2X2X2X2X2X2X2X        ",
"2X2X2X2X2X2X2X2X2X2X%Xw 0 ~.H.1.1.1.1.9.9.1.1.G.Q.r.9.9.<.=.m X c V @ g *X<X2X2X2X2X2X2X2X2X        ",
"2X2X2X2X2X2X2X2X2X2X;Xx.U W 4.<.1.1.1.1.1.i.a.H.H.9.,.<.&.A z 7 k z Y (.1X2X2X2X2X2X2X2X2X2X        ",
"2X2X2X2X2X2X2X2X2X2X2X2X+X+ v $.,.1.1.9.1.a.!.F.<.;.;.=.Z o k L : > %X2X2X2X2X2X2X2X2X2X2X2X        ",
"2X2X2X2X2X2X2X2X2X1X2X2X*X`.s.z ^ ,.,.;.:.8.r.<.,.=.] b l x k 7 z.].>X2X2X2X2X2X2X2X2X2X2X2X        ",
"2X2X2X2X2X2X2X2X2X2X2X2X2X2X).& C @.[ @.@.| @.+.+.+.! O : L 8 = }.2X2X2X2X2X2X2X2X2X2X2X2X2X        ",
"2X2X2X2X2X2X2X2X2X2X2X2X2X2X;X+XY , 5 5 5 , 5 , , , # . o # U $X>X2X2X2X2X2X2X2X2X2X2X2X2X2X        ",
"2X2X2X2X2X2X2X2X2X2X2X2X2X2X2X1Xx.e e e e r e e e e e r r e _.2X2X2X2X2X2X2X2X2X2X2X2X2X2X2X        ",
"2X2X2X2X2X2X2X2X2X2X2X2X2X2X2X2X:X=X=X-X-X*X-X-X-X=X-X*X=X-X<X2X2X2X2X2X2X2X2X2X2X2X2X2X2X2X2X      "
};
