/* XPM */
static char *coin5_resized[] = {
/* columns rows colors chars-per-pixel */
"50 50 195 2 ",
"   c #3E2A03",
".  c #3E2C09",
"X  c #442C02",
"o  c #4A2E00",
"O  c #422F0A",
"+  c #473000",
"@  c #4A3405",
"#  c #43300B",
"$  c #4A350B",
"%  c #4B3A18",
"&  c #52421F",
"*  c #6B4702",
"=  c #6B4802",
"-  c #6C4B0A",
";  c #744601",
":  c #7C4D00",
">  c #775309",
",  c #664E18",
"<  c #704E10",
"1  c #6B511B",
"2  c #534321",
"3  c #57492B",
"4  c #5B4C2E",
"5  c #5C4E31",
"6  c #65522C",
"7  c #775E24",
"8  c #605034",
"9  c #6C5D3D",
"0  c #6E5F42",
"q  c #77694C",
"w  c #766952",
"e  c #7B6D54",
"r  c #7B6E58",
"t  c #7F7157",
"y  c #7F745A",
"u  c #825201",
"i  c #875C07",
"p  c #915500",
"a  c #905F07",
"s  c #8C5A12",
"d  c #89630B",
"f  c #906006",
"g  c #886717",
"h  c #AB6301",
"j  c #AC760D",
"k  c #B87304",
"l  c #B3790B",
"z  c #B97C0B",
"x  c #826726",
"c  c #866928",
"v  c #896F2D",
"b  c #87702A",
"n  c #89702D",
"m  c #96732D",
"M  c #887134",
"N  c #89723E",
"B  c #C76F01",
"V  c #C67201",
"C  c #C87201",
"Z  c #CA7902",
"A  c #897341",
"S  c #877448",
"D  c #80745A",
"F  c #8E7E5D",
"G  c #897D67",
"H  c #BB8013",
"J  c #B08221",
"K  c #A6883C",
"L  c #A8883A",
"P  c #CC8A0D",
"I  c #D5900C",
"U  c #D38D10",
"Y  c #DD9612",
"T  c #D79E1B",
"R  c #E08202",
"E  c #ED8D01",
"W  c #F08E02",
"Q  c #EE9104",
"!  c #EE920A",
"~  c #F49605",
"^  c #F1940A",
"/  c #F59A08",
"(  c #F49C0A",
")  c #EB9B14",
"_  c #F29B15",
"`  c #F09C1B",
"'  c #EBA00C",
"]  c #F6A30F",
"[  c #FBA40D",
"{  c #FEAA0F",
"}  c #E3A316",
"|  c #EDA412",
" . c #F5A310",
".. c #FAA611",
"X. c #F7AA14",
"o. c #FDAB12",
"O. c #F6A61A",
"+. c #FBAE19",
"@. c #FCB117",
"#. c #FDB41A",
"$. c #FEBA1E",
"%. c #D49E22",
"&. c #D6A532",
"*. c #F3A322",
"=. c #F5AC2C",
"-. c #FCB524",
";. c #FEBB22",
":. c #FDBD2B",
">. c #F4AE32",
",. c #F8AF33",
"<. c #F7B436",
"1. c #FCBF33",
"2. c #F6B43A",
"3. c #FBBC3B",
"4. c #FEC02D",
"5. c #FDC133",
"6. c #FDC43C",
"7. c #97834E",
"8. c #A88D45",
"9. c #B89A47",
"0. c #B4984A",
"q. c #BB9B48",
"w. c #A78E55",
"e. c #A48D58",
"r. c #90836B",
"t. c #968C79",
"y. c #9D937F",
"u. c #A5967D",
"i. c #CAA649",
"p. c #D6AE4A",
"a. c #D7B04C",
"s. c #D6B357",
"d. c #D6B45A",
"f. c #D9B759",
"g. c #E5B746",
"h. c #F7BB45",
"j. c #F9BB42",
"k. c #E1BC5C",
"l. c #D6B768",
"z. c #D6B976",
"x. c #D6BB7C",
"c. c #FDC643",
"v. c #FDC845",
"b. c #FBC54C",
"n. c #FDCB4C",
"m. c #EDC85F",
"M. c #FAC554",
"N. c #FCCA55",
"B. c #FBCC5B",
"V. c #FFD255",
"C. c #FED15C",
"Z. c #EDC760",
"A. c #F2CA63",
"S. c #FBCF61",
"D. c #FED464",
"F. c #FFD867",
"G. c #FED56A",
"H. c #FFD86B",
"J. c #FED671",
"K. c #FFD971",
"L. c #9D9481",
"P. c #A19783",
"I. c #A49C8B",
"U. c #A89F8D",
"Y. c #ADA086",
"T. c #A6A08E",
"R. c #AAA08D",
"E. c #ACA496",
"W. c #ACA699",
"Q. c #B3ADA0",
"!. c #BAB5A7",
"~. c #C7BFB8",
"^. c #FFDA81",
"/. c #FDDC8F",
"(. c #FEDE93",
"). c #FEDF9A",
"_. c #FFE096",
"`. c #FFE19C",
"'. c #C6C1B7",
"]. c #CAC4BB",
"[. c #C9C7C0",
"{. c #CECCC1",
"}. c #D2CEC6",
"|. c #D6D2CA",
" X c #D8D5CD",
".X c #DEDBD4",
"XX c #E2DFD9",
"oX c #E4E1DB",
"OX c #E8E6E2",
"+X c #EBE9E5",
"@X c #F3F2EE",
"#X c #F5F4F2",
"$X c #F9F7F6",
"%X c none",
"&X c none",
/* pixels */
"&X&X&X&X&X&X&X&X&X&X&X&X&X&X&X&X&X&X&X&X&X#XQ.R.R.E.T. X&X%X&X&X&X&X&X&X&X&X&X&X&X&X&X&X%X&X&X&X&X&X",
"&X&X&X&X&X&X&X&X&X&X&X&X&X&X&X&X&X&X&X&X&XoX8 X .   X R.&X&X&X&X&X&X&X&X&X&X&X&X&X&X&X&X%X&X&X&X&X&X",
"&X&X&X&X&X&X&X&X&X&X&X&X&X&X&X&X&X&X&X%XQ.r.e.w.e.w.w.r.r.XX&X%X&X&X&X&X&X&X&X&X&X&X&X&X%X&X&X&X&X&X",
"&X&X&X&X&X&X&X&X&X&X&X&X&X&X&X&X&X&X&X&XS @ !.`.`.`.`.N O {.&X&X&X&X&X&X&X&X&X&X&X&X&X&X%X&X&X&X&X&X",
"&X&X&X&X&X&X&X&X&X&X&X&X&X&X&X&X&X&X&X%Xy $ x.`.).).).A O {.&X&X&X&X&X&X&X&X&X&X&X&X&X&X%X&X&X&X&X&X",
"&X&X&X&X&X&X&X&X&X&X&X&X&X&X&X&X&X&X&X%Xy $ z.(.(.(./.N # {.&X&X&X&X&X&X&X&X&X&X&X&X&X&X%X&X&X&X&X&X",
"&X&X&X&X&X&X&X&X&X&X&X&X&X&X&X&X&X&X&X&XD @ d.H.G.H.J.v # {.&X&X&X&X&X&X&X&X&X&X&X&X&X&X%X&X&X&X&X&X",
"&X&X&X&X&X&X&X&X&X&X&X&X&X&X&X&X&X&X&X%Xy $ s.G.G.G.D.b # {.&X&X&X&X&X&X&X&X&X&X&X&X&X&X%X&X&X&X&X&X",
"&X&X&X&X&X&X&X&X&X&X&X&X&X&X&X&X&X&X&X&XD @ d.H.G.G.G.c . {.&X&X&X&X&X&X&X&X&X&X&X&X&X&X%X&X&X&X&X&X",
"&X&X&X&X&X&X&X&X&X&X&X&X&X&X&X&X&X&X&X%XD $ l.^.^.^.^.M # {.&X&X&X&X&X&X&X&X&X&X&X&X&X&X%X&X&X&X&X&X",
"&X&X&X&X&X&X&X&X&X&X&X&X&X&X&X&X&X&X&X%XD $ x.`.).).).A # {.&X&X&X&X&X&X&X&X&X&X&X&X&X&X%X&X&X&X&X&X",
"&X&X&X&X&X&X&X&X&X&X&X&X&X&X&X&X&X&X&X&XD $ x.`.).).).A # {.&X&X&X&X&X&X&X&X&X&X&X&X&X&X%X&X&X&X&X&X",
"&X&X&X&X&X&X&X&X&X&X&X&X&X&X&X&X&X&X&X%XD $ z._.(.(.(.N O {.&X&X&X&X&X&X&X&X&X&X&X&X&X&X%X&X&X&X&X&X",
"&X&X&X&X&X&X&X&X&X&X&X&X&X&X&X&X&X&X&X&XD @ d.K.J.J.H.v O {.&X&X&X&X&X&X&X&X&X&X&X&X&X&X%X&X&X&X&X&X",
"&X&X&X&X&X&X&X&X&X&X&X&X&X&X&X&X&X&X&X%XD @ s.G.G.G.G.v # {.&X&X&X&X&X&X&X&X&X&X&X&X&X&X%X&X&X&X&X&X",
"&X&X&X&X&X&X&X&X&X&X&X&X&X&X&X&X&X&X&X&XD $ s.D.G.G.G.n # {.&X&X&X&X&X&X&X&X&X&X&X&X&X&X%X&X&X&X&X&X",
"&X&X&X&X&X&X&X&X&X&X&X&X&X&X&X&X&X&X&X%XD $ s.G.G.G.G.v O {.&X&X&X&X&X&X&X&X&X&X&X&X&X&X%X&X&X&X&X&X",
"&X&X&X&X&X&X&X&X&X&X&X&X&X&X&X&X&X&X&X&XD @ s.H.D.G.G.v # {.&X&X&X&X&X&X&X&X&X&X&X&X&X&X%X&X&X&X&X&X",
"&X&X&X&X&X&X&X&X&X&X&X&X&X&X&X&X&X&X&X%XD @ s.G.G.G.D.v # {.&X&X&X&X&X&X&X&X&X&X&X&X&X&X%X&X&X&X&X&X",
"&X&X&X&X&X&X&X&X&X&X&X&X&X&X&X&X&X&X&X&XD @ s.H.G.G.G.v # {.&X&X&X&X&X&X&X&X&X&X&X&X&X&X%X&X&X&X&X&X",
"&X&X&X&X&X&X&X&X&X&X&X&X&X&X&X&X&X&X&X&Xt # d.H.G.G.G.v # {.&X&X&X&X&X&X&X&X&X&X&X&X&X&X%X&X&X&X&X&X",
"&X&X&X&X&X&X&X&X&X&X&X&X&X&X&X&X&X&X&X$Xy @ d.K.J.J.J.n O {.&X&X&X&X&X&X&X&X&X&X&X&X&X&X%X&X&X&X&X&X",
"&X&X&X&X&X&X&X&X&X&X&X&X&X&X&X&X&X&X&X&Xy $ z.`.(.(.(.N # {.&X&X&X&X&X&X&X&X&X&X&X&X&X&X%X&X&X&X&X&X",
"&X&X&X&X&X&X&X&X&X&X&X&X&X&X&X&X&X&X&X%Xy $ x.`.).).).N O {.&X&X&X&X&X&X&X&X&X&X&X&X&X&X%X&X&X&X&X&X",
"&X&X&X&X&X&X&X&X&X&X&X&X&X&X&X&X&X&X&X%XD $ x.`.).).).N O {.&X&X&X&X&X&X&X&X&X&X&X&X&X&X%X&X&X&X&X&X",
"&X&X&X&X&X&X&X&X&X&X&X&X&X&X&X&X&X&X&X&XD $ x.`.`.).).A O {.&X&X&X&X&X&X&X&X&X&X&X&X&X&X%X&X&X&X&X&X",
"&X&X&X&X&X&X&X&X&X&X&X&X&X&X&X&X&X&X&X%XD $ z._.(.(.(.N O {.&X&X&X&X&X&X&X&X&X&X&X&X&X&X%X&X&X&X&X&X",
"&X&X&X&X&X&X&X&X&X&X&X&X&X&X&X&X&X&X&X%Xy @ &.6.6.6.6.g # {.&X&X&X&X&X&X&X&X&X&X&X&X&X&X%X&X&X&X&X&X",
"&X&X&X&X&X&X&X&X&X&X&X&X&X&X&X&X&X&X&X%XD @ T $.$.$.#.d # {.&X&X&X&X&X&X&X&X&X&X&X&X&X&X%X&X&X&X&X&X",
"&X&X&X&X&X&X&X&X&X&X&X&X&X&X&X&X&X&X&X&XD @ T $.$.$.;.d O {.&X&X&X&X&X&X&X&X&X&X&X&X&X&X%X&X&X&X&X&X",
"&X&X&X&X&X&X&X&X&X&X&X&X&X&X&X&X&X&X&X%XD @ T $.$.$.;.d # {.&X&X&X&X&X&X&X&X&X&X&X&X&X&X%X&X&X&X&X&X",
"&X&X&X&X&X&X&X&X&X&X&X&X&X&X&X&X&X&X&X&XD @ T ;.$.$.;.d # {.&X&X&X&X&X&X&X&X&X&X&X&X&X&X%X&X&X&X&X&X",
"&X&X&X&X&X&X&X&X&X&X&X&X&X&X&X&X&X&X&X&Xy o P [  .]  .i # {.&X&X&X&X&X&X&X&X&X&X&X&X&X&X%X&X&X&X&X&X",
"&X&X&X&X&X&X&X&X&X&X&X&X&X&X&X&X&X&X&X%Xy o Z E E E E u # {.&X&X&X&X&X&X&X&X&X&X&X&X&X&X%X&X&X&X&X&X",
"&X&X&X&X&X&X&X&X&X&X&X&X&X&X&X&X&X&X&X&Xy o Z E E E E : # {.&X&X&X&X&X&X&X&X&X&X&X&X&X&X%X&X&X&X&X&X",
"&X&X&X&X&X&X&X&X&X&X&X&X&X&X&X&X&X&X&X%Xy o Z E E E E u # {.&X&X&X&X&X&X&X&X&X&X&X&X&X&X%X&X&X&X&X&X",
"&X&X&X&X&X&X&X&X&X&X&X&X&X&X&X&X&X&X&X&XD o Z W E E E u O {.&X&X&X&X&X&X&X&X&X&X&X&X&X&X%X&X&X&X&X&X",
"&X&X&X&X&X&X&X&X&X&X&X&X&X&X&X&X&X&X&X%XD o Z W E R E u O {.&X&X&X&X&X&X&X&X&X&X&X&X&X&X%X&X&X&X&X&X",
"&X&X&X&X&X&X&X&X&X&X&X&X&X&X&X&X&X&X&X&XD o C W E W W u O {.&X&X&X&X&X&X&X&X&X&X&X&X&X&X%X&X&X&X&X&X",
"&X&X&X&X&X&X&X&X&X&X&X&X&X&X&X&X&X&X&X%XD o k R Z R R u O {.&X&X&X&X&X&X&X&X&X&X&X&X&X&X%X&X&X&X&X&X",
"&X&X&X&X&X&X&X&X&X&X&X&X&X&X&X&X&X&X&X&Xy X h B C C C ; # {.&X&X&X&X&X&X&X&X&X&X&X&X&X&X%X&X&X&X&X&X",
"&X&X&X&X&X&X&X&X&X&X&X&X&X&X&X&X&X&X&X%XD X h C C C C ; # {.&X&X&X&X&X&X&X&X&X&X&X&X&X&X%X&X&X&X&X&X",
"&X&X&X&X&X&X&X&X&X&X&X&X&X&X&X&X&X&X&X&XD o h C V V C ; # {.&X&X&X&X&X&X&X&X&X&X&X&X&X&X%X&X&X&X&X&X",
"&X&X&X&X&X&X&X&X&X&X&X&X&X&X&X&X&X&X&X%XD X h B V V C ; # {.&X&X&X&X&X&X&X&X&X&X&X&X&X&X%X&X&X&X&X&X",
"&X&X&X&X&X&X&X&X&X&X&X&X&X&X&X&X&X&X&X&XD X h B V V V ; # {.&X&X&X&X&X&X&X&X&X&X&X&X&X&X%X&X&X&X&X&X",
"&X&X&X&X&X&X&X&X&X&X&X&X&X&X&X&X&X&X&X%Xt X h B V C C ; . {.&X&X&X&X&X&X&X&X&X&X&X&X&X&X%X&X&X&X&X&X",
"&X&X&X&X&X&X&X&X&X&X&X&X&X&X&X&X&X&X&X&XE.q s p p p p x G .X&X&X&X&X&X&X&X&X&X&X&X&X&X&X%X&X&X&X&X&X",
"&X&X&X&X&X&X&X&X&X&X&X&X&X&X&X&X&X&X&X&X&XoX4       . T.%X&X&X&X&X&X&X&X&X&X&X&X&X&X&X&X%X&X&X&X&X&X",
"&X&X&X&X&X&X&X&X&X&X&X&X&X&X&X&X&X&X&X&X&X@XQ.I.I.I.I.|.&X&X&X&X&X&X&X&X&X&X&X&X&X&X&X&X%X&X&X&X&X&X",
"&X&X&X&X&X&X&X&X&X&X&X&X&X&X&X&X&X&X&X&X&X&X&X&X&X&X&X&X&X&X&X&X&X&X&X&X&X&X&X&X&X&X&X&X%X&X&X&X&X&X"
};
