/* XPM */
static char *coin9_resized[] = {
/* columns rows colors chars-per-pixel */
"50 50 194 2 ",
"   c #3D2B05",
".  c #3F2C09",
"X  c #412D06",
"o  c #402E0B",
"O  c #483107",
"+  c #43310C",
"@  c #523600",
"#  c #593E0C",
"$  c #433312",
"%  c #4A3815",
"&  c #4B3C1C",
"*  c #5B4412",
"=  c #544018",
"-  c #604201",
";  c #664605",
":  c #6E4903",
">  c #714A02",
",  c #795105",
"<  c #7B570F",
"1  c #634916",
"2  c #6C5317",
"3  c #6B531A",
"4  c #77591C",
"5  c #534324",
"6  c #5D4924",
"7  c #5C4C2E",
"8  c #5B4C30",
"9  c #634D20",
"0  c #655020",
"q  c #6D5822",
"w  c #705824",
"e  c #625436",
"r  c #695A3A",
"t  c #715B34",
"y  c #796022",
"u  c #7F642F",
"i  c #766138",
"p  c #6E5F46",
"a  c #6C6144",
"s  c #796846",
"d  c #766952",
"f  c #7E745D",
"g  c #835904",
"h  c #8F5E08",
"j  c #966506",
"k  c #94640B",
"l  c #976909",
"z  c #906610",
"x  c #A26E06",
"c  c #A36D0B",
"v  c #AB750C",
"b  c #B67B0D",
"n  c #AD7A15",
"m  c #B47B12",
"M  c #846622",
"N  c #866927",
"B  c #8F732E",
"V  c #90742C",
"C  c #84693B",
"Z  c #8A703D",
"A  c #90763F",
"S  c #897448",
"D  c #927946",
"F  c #84755A",
"G  c #917B53",
"H  c #877C69",
"J  c #897F70",
"K  c #A78739",
"L  c #B28B3A",
"P  c #CB8A0F",
"I  c #D2900F",
"U  c #DA940E",
"Y  c #D28D10",
"T  c #D79711",
"R  c #DD9A14",
"E  c #D4971C",
"W  c #ED8E03",
"Q  c #F08E02",
"!  c #EE9104",
"~  c #E5970D",
"^  c #EF930A",
"/  c #E5980E",
"(  c #EC9D0F",
")  c #F19406",
"_  c #F49907",
"`  c #F29708",
"'  c #F39C0C",
"]  c #F89C0C",
"[  c #E79A14",
"{  c #EF9D1B",
"}  c #F09511",
"|  c #F29D14",
" . c #F19E1B",
".. c #EFA00E",
"X. c #F5A20E",
"o. c #FBA60E",
"O. c #FDA90E",
"+. c #EBAB1F",
"@. c #F6A412",
"#. c #FAA511",
"$. c #F6AB15",
"%. c #FCAB13",
"&. c #F3A01A",
"*. c #F6AA1A",
"=. c #FBAE19",
"-. c #FEB216",
";. c #FDB41B",
":. c #FEBA1E",
">. c #F3A526",
",. c #F4AA2D",
"<. c #FCB323",
"1. c #FEBB21",
"2. c #FDB62A",
"3. c #FDBD2B",
"4. c #F6AF39",
"5. c #E6B63D",
"6. c #FDBD32",
"7. c #F5B33A",
"8. c #F7B638",
"9. c #FBBC38",
"0. c #FDC02D",
"q. c #FDC234",
"w. c #FDC43C",
"e. c #FEC83F",
"r. c #92804B",
"t. c #96815A",
"y. c #B59644",
"u. c #B79948",
"i. c #8B826F",
"p. c #8C8271",
"a. c #958B7B",
"s. c #998F7C",
"d. c #A8997E",
"f. c #C59E49",
"g. c #DCB044",
"h. c #C7A752",
"j. c #DFBC5B",
"k. c #E2AE40",
"l. c #E2B74A",
"z. c #F8B941",
"x. c #E8BC55",
"c. c #FDC543",
"v. c #FDC846",
"b. c #F5C34A",
"n. c #FBC44C",
"m. c #FECA4B",
"M. c #E8C45F",
"N. c #FBC453",
"B. c #FDCC53",
"V. c #F0C55B",
"C. c #FDC658",
"Z. c #FDCC5B",
"A. c #FDD05D",
"S. c #E6C360",
"D. c #ECC661",
"F. c #F3CD65",
"G. c #FDCB61",
"H. c #FED364",
"J. c #FED56A",
"K. c #9F9783",
"L. c #A49A87",
"P. c #A39A8B",
"I. c #AEA28C",
"U. c #ACA395",
"Y. c #AEA797",
"T. c #B1A794",
"R. c #B2AB9C",
"E. c #B6AEA2",
"W. c #BAB1A2",
"Q. c #BCB5A8",
"!. c #BFB9AB",
"~. c #C3BEB4",
"^. c #C6C0B6",
"/. c #C9C5BA",
"(. c #CFCCC3",
"). c #D2CDC4",
"_. c #D3D0C6",
"`. c #D7D3CB",
"'. c #D9D5CD",
"]. c #DDD9D4",
"[. c #DCDAD4",
"{. c #E0DDD7",
"}. c #E1DFDA",
"|. c #E3E0DB",
" X c #E8E6E0",
".X c #ECEAE6",
"XX c #EEECE9",
"oX c #F0EFEC",
"OX c #F1F0EE",
"+X c #F5F5F3",
"@X c #F8F6F6",
"#X c #F9F9F6",
"$X c #F9F7F8",
"%X c none",
/* pixels */
"%X%X%X%X%X%X%X%X%X%X%X%X%X%X%X%X%X%X@X.X.X.X.X.X.X.XXXXX.XXX.X#X%X%X%X%X%X%X%X%X%X%X%X%X%X%X%X%X%X%X",
"%X%X%X%X%X%X%X%X%X%X%X%X%X%X%X%X%X%X^.r e e e e e e e e e e a |.%X%X%X%X%X%X%X%X%X%X%X%X%X%X%X%X%X%X",
"%X%X%X%X%X%X%X%X%X%X%X%X%X%X%X].`.'.P.1 * * * * * * * * * * 1 ~.'.`.|.%X%X%X%X%X%X%X%X%X%X%X%X%X%X%X",
"%X%X%X%X%X%X%X%X%X%X%X%X%X%X+Xp $ % u S.D.D.M.D.D.D.D.D.D.D.j.9 % $ p.%X%X%X%X%X%X%X%X%X%X%X%X%X%X%X",
"%X%X%X%X%X%X%X%X%X%X%X|.E.E.R.A y y K b.m.B.H.H.B.m.n.B.B.m.b.z , , D R.E.Q..X%X%X%X%X%X%X%X%X%X%X%X",
"%X%X%X%X%X%X%X%X%X%X%XR..   O h.J.J.N.1.-.%.B.A.6.;.%.-.:.1.1.$.o.O.v     % /.%X%X%X%X%X%X%X%X%X%X%X",
"%X%X%X%X%X%X%X%X%X|.a.t.K K K l.c.c.6.-.6.c.c.w.1.:.-.;.:.:.:.-.-.;.T x x c G L.XX%X%X%X%X%X%X%X%X%X",
"%X%X%X%X%X%X%X%X#X/.% u J.J.H.0.1.1.;.%.c.H.6.:.:.1.1.:.:.1.1.:.:.:.;.%.%.&.; 7 ].#X%X%X%X%X%X%X%X%X",
"%X%X%X%X%X%X%XOXH s f.g.q.q.q.-.%.%.3.N.c.q.2.:.:.:.1.1.:.1.1.:.:.<.:.;.q.b.E m t s.%X%X%X%X%X%X%X%X",
"%X%X%X%X%X%X X).t 3 V.v.1.:.;.%.O.*.6.H.q.-.;.;.;.;.;.;.-.:.:.:.:.:.1.3.B.J.q.R - s [.oX%X%X%X%X%X%X",
"%X%X%X%X%X%Xi.6 f.M.0.0.1.-.%.o.;.Z.m.0.$.) ) ) ) ) ) ! ^ $.1.:.1.:.w.H.H.J.H.N.[ n 5 U.%X%X%X%X%X%X",
"%X%X%X%X|.!.S y g.m.:.:.;.-.%.<.6.z.9.=.] ! ) _ ) ) ) ) ) @.-.$.;.6.m.J.J.J.A.v.;.Y > t.~..X%X%X%X%X",
"%X%X%X%XP.+ y.A.0.0.:.;.%.-.1.A.Z.} W W ] #.O.#.O.%.o.%.O._ W W { H.H.J.J.H.q.1.1.-.X.k $ ~.%X%X%X%X",
"%X%X%X%XL.  y.H.0.:.;.-.-.q.c.8.4.| _ _ #.-.-.-.-.%.O.%.-.$.@.,.7.7.b.J.B.c.3.:.1.;.%.j   ~.%X%X%X%X",
"%X%X#X#XK.X y.H.0.-.O.-.1.v.H. .W o.%.O.-.1.:.1.1.;.%.-.:.:.3.A.C.^ ,.J.e.:.:.:.:.;.O.l + !.#X%X%X%X",
"%X%X'.F r.y.5.q.-.%.O.1.B.8.>.@.X.;.;.;.:.:.1.:.:.:.-.:.1.c.B.H.G.b.7.>.<.:.:.1.:.:.;.T m Z H .X%X%X",
"%X%X/.. V J.w.:.%.%.=.6.A.,.Q o.-.:.:.:.1.:.:.:.:.1.:.1.3.B.J.J.H.H.z.W @.:.:.:.:.1.:.-.#.: & }.%X%X",
"%X%X/.+ B H.w.:.%.;.Z.z.| ] o.-.-.:.:.:.:.:.:.1.:.:.:.w.A.H.J.J.A.q.1.:.| ^ ;.1.1.:.:.-.X.: & |.%X%X",
"@X`.T.0 K B.q.;.<.6.Z.8.W ] %.:.1.:.:.:.1.:.:.1.1.1.q.m.J.J.J.A.m.1.:.1.X.W -.:.:.:.:.;.#.h 2 Q.[.#X",
"}.8 w S.b.1.%.=.C.B.3.*.W ] %.;.:.1.:.:.:.:.:.:.:.q.A.H.J.J.H.q.1.:.:.:.' ! $.1.:.:.:.-.o.X.U * d +X",
"}.5 3 F.v.;.2.9.m.w.*.X._ o.=.;.:.:.:.:.:.1.1.1.w.m.H.J.H.B.m.0.:.:.:.1.$.X.@.$.1.3.w.3.-.O./ @ p oX",
"|.5 3 F.w.O.n.J.0.;.! ` %.;.1.:.:.1.:.:.:.1.:.0.H.H.J.J.J.w.:.:.1.1.:.:.1.;.( _ ;.q.H.c.:.%./ @ p oX",
"|.5 3 F.A.n.c.q.0.=.W ` O.-.1.:.:.:.1.:.:.1.c.B.H.J.J.B.q.0.:.:.:.:.:.:.:.;.^ ^ c.m.w.q.:.%./ @ p oX",
"|.5 3 F.J.A.w.:.:.-.) ) O.;.:.1.1.:.:.:.1.1.B.J.J.J.H.v.:.:.:.:.:.:.:.1.:.:.) { G.B.:.:.:.-./ @ p oX",
"|.5 3 F.B.q.1.:.:.;.W ) %.-.:.:.:.:.:.:.e.A.H.H.J.A.q.1.:.:.:.:.:.:.:.1.:.:.` ^ 3.3.:.:.:.-./ @ p +X",
"|.5 3 F.v.:.:.:.:.=.W ` %.-.1.:.:.:.1.3.m.J.J.J.A.m.1.1.1.1.:.1.:.:.1.:.3.3._ ) :.:.:.1.:.%.~ @ p oX",
"}.5 3 F.v.:.1.:.1.;.W _ #.;.1.:.:.:.q.H.H.H.J.H.0.1.:.:.:.:.:.:.:.:.:.:.c.A.{ ^ ;.:.1.:.:.%.~ @ p oX",
"}.5 3 F.m.:.:.:.:.-.W ) O.-.:.:.1.q.m.J.J.J.Z.m.0.:.1.:.:.1.:.:.:.:.0.q.m.m.[ ^ :.1.1.3.q.-.~ @ p oX",
"|.5 3 F.m.:.:.:.:.;.! _ %.;.:.:.3.H.J.H.J.J.q.:.1.:.:.:.:.1.1.:.:.:.w.J.w.:.) ^ ;.1.:.c.H.2.~ @ p oX",
"|.5 2 F.v.:.:.1.1.;.$.X._ -.1.q.m.J.J.J.B.e.3.:.:.:.1.:.:.:.:.:.3.v.v.v.;...$.$.:.3.m.v.w.;./ @ p OX",
"|.7 w D.b.1.:.1.:.:.1.$.W $.0.A.J.H.J.J.c.:.:.:.:.:.:.:.:.:.1.1.q.H.m.:.' ! ;.:.1.q.H.c.;.$.U # d oX",
"+X_.I.q K B.q.:.1.:.:.@.W 4.A.J.J.J.A.q.1.:.:.:.:.1.:.1.:.:.1.B.m.q.3.1...W $.0.B.m.q.<.$.k 4 E.`.$X",
"%X%X/.o B J.e.:.:.:.:.$.} 7.G.J.H.H.c.1.:.:.:.:.:.1.1.:.1.1.q.A.B.1.:.;.../ :.q.A.m.1.-.#.: & |.%X%X",
"%X%X/.. V J.w.:.:.:.1.6.N.,.[ C.H.q.1.1.:.:.:.1.:.:.1.:.1.m.A.q.1.1.$.! @.:.B.Z.q.1.:.-.o.: & |.%X%X",
"%X%X`.d D f.5.q.1.:.0.c.G.4. .z.c.1.:.:.:.:.:.:.:.:.:.0.q.m.B.3.:.=.@.' <.e.m.m.1.:.;.T b C F .X%X%X",
"%X%X%X@XK.O u.H.0.3.C.G.G.C.C. .) <.:.:.1.:.:.:.:.:.:.e.H.w.1.:.=.W X.:.v.H.q.:.1.;.%.l + !.@X%X%X%X",
"%X%X%X%XL.  y.J.m.z.Z.G.G.N.w.*.@.@.@.X.=.:.:.1.:.3.c.v.v.<.X.@.@.X.<.v.m.c.0.:.1.;.%.l X ~.%X%X%X%X",
"%X%X%X%XL.. y.H.G.G.G.G.C.9.:.1.;.! W W @.:.:.1.:.0.H.v.:.' W W ( :.w.H.w.:.:.:.1.-.#.k + ^.%X%X%X%X",
"%X%X%X%X].E.G y x.G.G.N.q.2.:.:.:.-.$.$.@.( ' _ ( | >.&.' @.=.$.<.m.c.w.0.:.:.:.-.I , G Q..X%X%X%X%X",
"%X%X%X%X%X%XH = f.x.C.c.:.1.:.1.:.:.1.:.@.W ^ ^ W W ! ! ! $.:.1.q.H.m.:.:.:.:.$.( m & P.%X%X%X%X%X%X",
"%X%X%X%X%X%X|.^.t M V.c.:.:.:.1.1.:.:.:.:.;.b.n.<.=.;.;.-.:.1.B.B.q.1.:.1.1.-.[ ; C _. X%X%X%X%X%X%X",
"%X%X%X%X#X%X%XOXf i f.k.3.3.3.1.:.:.:.:.1.q.m.B.0.:.1.:.1.0.q.B.m.1.:.:.:.;.U m e a.%X%X%X%X%X%X%X%X",
"%X%X%X%X%X%X%X#XoX~.% M Z.Z.C.3.1.:.:.:.v.H.w.1.:.:.:.:.1.m.G.q.1.1.;.%.O.@.: 6 '.OX%X%X%X%X%X%X%X%X",
"%X%X%X%X%X%X%X%X%X}.J G L L L +.;.;.1.w.v.m.3.:.:.:.:.0.w.m.m.1.;.;.T b v v S a.oX%X%X%X%X%X%X%X%X%X",
"%X%X%X%X%X%X%X%X%X%X%XR..   O P %.$.2.H.c.:.:.1.:.:.:.c.J.w.;.#.O.O.v     % /.%X%X%X%X%X%X%X%X%X%X%X",
"%X%X%X%X%X%X%X%X#X%X%X].Y.Y.P.N g g n 8.<.-.-.-.-.-.-.1.6.1.$.l g g A U.U.R. X%X%X%X%X%X%X%X%X%X%X%X",
"%X%X%X%X%X%X%X%X%X%X%X%X%X%X+Xp . $ < [ X.............( X...~ * $ . i.%X%X%X%X%X%X#X%X%X%X%X%X%X%X%X",
"%X%X%X%X%X%X%X%X%X%X%X%X%X%X$X].(.).d.; - - - - - - - - - - 1 W._.(.}.%X%X%X%X%X%X%X%X%X%X%X%X%X%X%X",
"%X%X%X%X%X%X%X%X%X%X%X%X%X%X%X%X%X%X^.e 7 7 7 8 7 7 7 7 7 7 p {.%X%X%X%X%X%X%X%X%X%X%X%X%X%X%X%X%X%X",
"%X%X%X%X%X%X%X%X%X%X%X%X%X%X%X%X%X%X@X X|. X X X X X X X X X X#X%X%X%X%X%X%X%X%X%X%X%X%X%X%X%X%X%X%X"
};
