/* XPM */
static char *coin4_resized[] = {
/* columns rows colors chars-per-pixel */
"50 50 218 2 ",
"   c None",
".  c #3D2700",
"X  c #3E2A01",
"o  c #3E2F0A",
"O  c #422B02",
"+  c #442E06",
"@  c #4D3201",
"#  c #43310B",
"$  c #4B340B",
"%  c #533501",
"&  c #5A3B03",
"*  c #533F0E",
"=  c #5A3600",
"-  c #483714",
";  c #473613",
":  c #543F13",
">  c #613B02",
",  c #58410B",
"<  c #534010",
"1  c #5B4414",
"2  c #584519",
"3  c #624203",
"4  c #684B08",
"5  c #684908",
"6  c #7C4C02",
"7  c #7B570B",
"8  c #69511B",
"9  c #74591A",
"0  c #6E4E15",
"q  c #5C4D2E",
"w  c #574728",
"e  c #5F5034",
"r  c #57472B",
"t  c #695325",
"y  c #67532D",
"u  c #755C22",
"i  c #755B22",
"p  c #635335",
"a  c #6A5B3D",
"s  c #655638",
"d  c #715E39",
"f  c #7F6626",
"g  c #7E662C",
"h  c #7B6534",
"j  c #6C5D42",
"k  c #7E735C",
"l  c #7A6849",
"z  c #7F7660",
"x  c #8C5E06",
"c  c #805C0B",
"v  c #895905",
"b  c #965802",
"n  c #995A03",
"m  c #855D11",
"M  c #9F6409",
"N  c #84611D",
"B  c #AF6A02",
"V  c #AA6502",
"C  c #B36B03",
"Z  c #BC6C02",
"A  c #AE770D",
"S  c #B67709",
"D  c #B67E14",
"F  c #AA6C11",
"G  c #856A29",
"H  c #94732A",
"J  c #80693A",
"K  c #8B7238",
"L  c #987C37",
"P  c #916D2E",
"I  c #C57202",
"U  c #C97202",
"Y  c #CB7A03",
"T  c #D27B03",
"R  c #8D7645",
"E  c #8A7451",
"W  c #827761",
"Q  c #BA8917",
"!  c #B88313",
"~  c #BE830C",
"^  c #A88838",
"/  c #B89439",
"(  c #D38D0C",
")  c #DA940D",
"_  c #D29110",
"`  c #EE8D02",
"'  c #E48602",
"]  c #F18E02",
"[  c #F08E08",
"{  c #EF9504",
"}  c #ED9F0E",
"|  c #ED9009",
" . c #F19505",
".. c #F49C0A",
"X. c #F99F0A",
"o. c #F1950A",
"O. c #EE9A15",
"+. c #E59D15",
"@. c #F19A15",
"#. c #F19B1A",
"$. c #F3A00D",
"%. c #FAA30D",
"&. c #FEAA0F",
"*. c #EAA718",
"=. c #F5A411",
"-. c #FAA711",
";. c #FEAB13",
":. c #F4A91A",
">. c #FAAB19",
",. c #FDB116",
"<. c #F2B31E",
"1. c #FDB51C",
"2. c #FDBA1E",
"3. c #CDA23B",
"4. c #F2A424",
"5. c #F4AD2E",
"6. c #FEBB22",
"7. c #FDBE2C",
"8. c #F2B320",
"9. c #F6AE34",
"0. c #ECBA3C",
"q. c #F6B035",
"w. c #F6B43B",
"e. c #F9BD3B",
"r. c #EDA82B",
"t. c #FDC02E",
"y. c #FDC234",
"u. c #FDC43B",
"i. c #988150",
"p. c #AD9146",
"a. c #B99A47",
"s. c #BA9B49",
"d. c #B69644",
"f. c #A38B53",
"g. c #B89C58",
"h. c #A38B47",
"j. c #BFA049",
"k. c #8E836E",
"l. c #928977",
"z. c #91846A",
"x. c #B99F65",
"c. c #B39B64",
"v. c #A3967A",
"b. c #C09E4C",
"n. c #C7A74B",
"m. c #CAAA51",
"M. c #D1AD51",
"N. c #DCB857",
"B. c #D3AB45",
"V. c #F7BB45",
"C. c #E7BC49",
"Z. c #C5A869",
"A. c #DABE7D",
"S. c #D4B76F",
"D. c #FCC543",
"F. c #FEC845",
"G. c #FBC44A",
"H. c #FDCB4C",
"J. c #F7C344",
"K. c #E5C15E",
"L. c #E8C35F",
"P. c #FAC652",
"I. c #FECD53",
"U. c #FCCC5C",
"Y. c #F8C758",
"T. c #FED15C",
"R. c #FFD155",
"E. c #EAC661",
"W. c #EAC762",
"Q. c #F2CC64",
"!. c #F8CC67",
"~. c #F6D067",
"^. c #FDD263",
"/. c #FED56A",
"(. c #FFD86B",
"). c #FFD973",
"_. c #FBD376",
"`. c #E6C570",
"'. c #999283",
"]. c #A49D8A",
"[. c #A69B86",
"{. c #A89D91",
"}. c #ABA392",
"|. c #B1A99C",
" X c #B3ADA1",
".X c #BAB4A5",
"XX c #C3BDB2",
"oX c #C5BFB8",
"OX c #C1B7AB",
"+X c #DEC587",
"@X c #E5CB89",
"#X c #EFD38E",
"$X c #FFDC83",
"%X c #F2D693",
"&X c #FBDD97",
"*X c #FBDD99",
"=X c #F5D995",
"-X c #FFE29C",
";X c #FFE195",
":X c #C8C3B7",
">X c #C9C4BA",
",X c #CEC9BF",
"<X c #FFE3A0",
"1X c #D2CEC6",
"2X c #D4D0C7",
"3X c #D7D4CC",
"4X c #DDDAD4",
"5X c #E2DFD9",
"6X c #E4E3DD",
"7X c none",
"8X c none",
"9X c none",
"0X c none",
"qX c none",
"wX c none",
"eX c none",
"rX c none",
"tX c none",
/* pixels */
"                  rXrXrXrXrXrXrXrXrXrXtX0X0X9X9X9X9X0X0X9X0XeXrXrXrXrXrXrXrXrXrXrXrXrXrXrXrXrXrX0X7X",
"                  rXrXrXrXrXrXrXrXrXrX,Xs p p s s s p p p s :XrXrXrXrXrXrXrXrXrXrXrXrXrXeXrXrXrX0X7X",
"                  rXrXrXrXrXrXrXrXwX4X}.t 2 2 $ X < 1 1 1 < [.4XwXrXrXrXrXrXrXrXrXrXrXrXrXrXrXrX0X7X",
"                  rXrXrXrXrXrXrXrX5Xr h @X#X@Xy $ m.Q.L.W.E.g w 4XrXeXrXrXrXrXrXrXrXrXrXrXrXrXrX0X7X",
"                  rXrXrXrXrXrXeX>X}.h f.*XA.c.K G C.R.H.H.H.^ g [.:XtXrXrXrXrXrXrXrXrXrXrXrXrXrX0X7X",
"                  rXrXrXrXrXrXqXj 2 @X*X<Xi.o s.T.t.2.6.2.6.P.W.1 p 9XrXrXrXrXrXrXrXrXrXrXrXrXrX0X7X",
"                  rXrXrXrXrXrXwXa : `.$X$XL o j.^.t.2.2.t.H.F.0., q 0XrXrXrXrXrXrXrXrXrXrXrXrXrX0X7X",
"                  rXrXrXrXrXeX8Xa < K./.!.L + j.T.t.2.6.D.^.u.<., e 6XtXrXrXrXrXrXrXrXrXrXrXrXrX0X7X",
"                  rXrXrXrXrX}.a p.M.~.m.i L n.0.t.t.t.I.H.y.6.2._ D d [.eXrXrXrXrXrXrXrXrXrXrXrX0X7X",
"                  rXrXrXrXeXk.X m.).).n.. L (.y.2.2.e.U.u.6.6.2.;.) O k eXrXrXrXrXrXrXrXrXrXrXrX0X7X",
"                  rXrXrXrXrXk.X Z.-X-Xx.X L /.y.t.R.P.O.=.2.6.1.&.( O k eXrXrXrXrXrXrXrXrXrXrXrX0X7X",
"                  rXrXrX6XXXz.h A.=XS.f.t / I.D.y.D.w.o...>.2.2.;.+.7 R .X6XrXrXrXrXrXrXrXrXrXrX0X7X",
"                  rXrXrX X# f.*X-X+X: 9 W.D.6.I.U.#.o.-.X.` :.2.6.,.=.A + }.rXrXrXrXrXrXrXrXrXrX0X7X",
"                  rXrXrX|.o h.$X$X`.$ 9 J.F.F.V.q...%.,.-...=.-.1.6.;.S X ].rXrXrXrXrXrXrXrXrXrX0X7X",
"                  rXrXeX|.# ^ (.~.N.* 7 <.F./.4.` %.;.6.,.&. .| 1.2.;.A o [.tXrXrXrXrXrXrXrXrXrX0X7X",
"                  rX4XW R d.N.~.L f p.3.2.D./.4.| %.;.2.1.&. .| V.F.6.*.S P W 3XrXrXrXrXrXrXrXrX0X7X",
"                  rX1X; f /.(.Q.8 * K.R.7.u.U.4. .%.;.6.1.;.@.@.P.I.7.2.;.x o :XrXrXrXrXrXrXrXrX0X7X",
"                  rX2X; f /./.Q.8 < K.^.T.w.+.=.-.,.1.6.2.1.D.P.4.@.1.,.&.x # :XrXrXrXrXrXrXrXrX0X7X",
"                  rX2X; f ^./.!.8 < K./.T.5.` X.;.2.6.6.6.7.I./.@.| 6.,.;.x # :XrXrXrXrXrXrXrXrX0X7X",
"                  rX2X; f ^./.Q.8 , K.R.7.=.` X.;.1.2.2.D.^./.^.#.{ 1.1.&.x # :XrXrXrXrXrXrXrXrX0X7X",
"                  rX2X- f ~.(.Q.8 , K.I.6.%.` X.;.2.6.y.F.H.^.^.@. .1.1.;.x # :XrXrXrXrXrXrXrXrX0X7X",
"                  rX2X- f !./.Q.8 * K.I.6.=.` X.;.1.e./.H.6.I.U.O. .6.,.;.x # :XrXrXrXrXrXrXrXrX0X7X",
"                  rX2X- G $X$X#X8 < K.R.t.$.{ X.;.1.y./.H.6.I.^.@. .1.,.%.x # :XrXrXrXrXrXrXrXrX0X7X",
"                  rX2X- J &X&X%Xt < K.I.2.%.` X.;.6.y.^.F.1.H.^.@. .6.1.;.x # :XrXrXrXrXrXrXrXrX0X7X",
"                  rX2X- J &X<X%Xt * K.R.6.%.` X.,.P.H.y.7.2.I.^.#.{ 2.1.;.x # :XrXrXrXrXrXrXrXrX0X7X",
"                  rX2X- J *X*X%Xt < K.I.6.$.` X.,.H.I.2.2.2.H.^.O. .1.1.&.x # :XrXrXrXrXrXrXrXrX0X7X",
"                  rX2X- J &X-X%Xt < K.R.6.=.` X.;.6.7.6.6.6.I.U.@. .2.,.;.x # :XrXrXrXrXrXrXrXrX0X7X",
"                  rX2X- f _./.!.8 * K.T.u.:.` %.;.1.2.2.6.1.I.^.O. .1.2.&.x # :XrXrXrXrXrXrXrXrX0X7X",
"                  rX2X- 7 6.6.8.4 * K././.q.` X.;.2.2.6.2.6.I.^.@.{ 1.,.;.x # :XrXrXrXrXrXrXrXrX0X7X",
"                  rX2X- c 2.2.<.4 < K././.9.` X.;.2.2.2.2.6.H.^.@. .1.1.&.x # >XrXrXrXrXrXrXrXrX0X7X",
"                  rX2X- c 6.2.<.4 < K././.9.` X.;.1.2.6.2.6.I.^.@.| 6.1.;.x # >XrXrXrXrXrXrXrXrX0X7X",
"                  rX2X- 7 2.2.<.4 * K.R.y.:.` %.;.2.6.2.2.1.I.^.O.O.P.y.;.x # >XrXrXrXrXrXrXrXrX0X7X",
"                  rX2X- 7 2.6.<.5 < E.I.6.=.` X.-.,.2.2.7.7.G.Y.4.4.U.D.;.x # >XrXrXrXrXrXrXrXrX0X7X",
"                  rX2X# 7 6.6.<.5 - E.I.6.2.1.}  .-.,.1.u.T.5.O.P.P.7.1.&.x o >XrXrXrXrXrXrXrXrX0X7X",
"                  rX4Xk J _ *.*.x 7 d.B.u.7.2... .%.;.6.D./.4.| G.H.6.+.~ P k 3XrXrXrXrXrXrXrXrX0X7X",
"                  rXrXtX}.O M { ` T % u Q.F.2...] %.;.2.u./.5.] 1.6.;.S O [.wXeXrXrXrXrXrXrXrXrX0X7X",
"                  rXrXrX|.o M ` ` T O i !.F.1.>.$.X.:.D.V.9.q.q.6.1.;.S X ].rXrXrXrXrXrXrXrXrXrX0X7X",
"                  rXrXrX X# n ` ` ( % 9 W.F.6.6.1. .:.^.V.[ V./.7.1.-.A + {.rXrXrXrXrXrXrXrXrXrX0X7X",
"                  rXrXrX6X.XR 6 T ' Z M f / I.7.1.>.>.4.9.V.u.y.1.+.7 K  X4XrXrXrXrXrXrXrXrXrXrX0X7X",
"                  rXrXrXrXrXk.X Z ` | C . L /.u.6.6.1.| 9.^.y.1.&.( O W rXrXrXrXrXrXrXrXrXrXrXrX0X7X",
"                  rXrXrXrXeXk.O I ] ] C . L /.y.2.6.y.P.u.t.t.2.;.) O k tXrXrXrXrXrXrXrXrXrXrXrX0X7X",
"                  rXrXrXrXrX].p F U T I & H M.0.t.2.t./.H.2.2.,.) ! y '.eXrXrXrXrXrXrXrXrXrXrXrX0X7X",
"                  rXrXrXrXrXwX6Xd = Z I I v # b.T.7.y./.H.2.,.$.3 p 4XwXrXrXrXrXrXrXrXrXrXrXrXrX0X7X",
"                  rXrXrXrXrXrXqXa O Z I U 6 O s.^.F.u.H.u.2.;.} & q 0XrXrXrXrXrXrXrXrXrXrXrXrXrX0X7X",
"                  rXrXrXrXrXrXqXj @ C I U 6 O s./.(.T.6.2.2.,.+.& p 8XrXrXrXrXrXrXrXrXrXrXrXrXrX0X7X",
"                  rXrXrXrXrXrXeXXXv.0 b I V b N H r.7.1.,.;.A c v.OXwXrXrXrXrXrXrXrXrXrXrXrXrXrX0X7X",
"                  rXrXrXrXrXrXrXrX5Xr 5 Z Z Z & @ ( } } } } 7 w 4XrXrXrXrXrXrXrXrXrXrXrXrXrXrXrX0X7X",
"                  rXrXrXrXrXrXrXrXwX3X[.= % % O X & 3 3 > , v.3XwXrXrXrXrXrXrXrXrXrXrXrXrXrXrXrX0X7X",
"                  rXrXrXrXrXrXrXrXrXrX,Xp q q q q q q q q e XXrXrXrXrXrXrXrXrXrXrXrXrXrXrXrXrXrX0X7X",
"                  rXrXrXrXrXrXrXrXrXrXwX7X7X7X7X7X7X7X7X7X7XwXrXrXrXrXrXrXrXrXrXrXrXrXrXrXrXrXrX0X7X"
};
