/* XPM */
static char *coin1_resized[] = {
/* columns rows colors chars-per-pixel */
"50 50 199 2 ",
"   c #3D2701",
".  c #3D2A05",
"X  c #3F2E0B",
"o  c #422F06",
"O  c #402E0A",
"+  c #483309",
"@  c #4F390C",
"#  c #513906",
"$  c #443312",
"%  c #4B3A19",
"&  c #503D14",
"*  c #533E19",
"=  c #5F4202",
"-  c #5A4311",
";  c #59431B",
":  c #614201",
">  c #684502",
",  c #6C4B0B",
"<  c #754E04",
"1  c #7A5204",
"2  c #654910",
"3  c #674C16",
"4  c #6F541D",
"5  c #544526",
"6  c #5B4C2E",
"7  c #5C4D32",
"8  c #5F5039",
"9  c #644E21",
"0  c #695428",
"q  c #745A2D",
"w  c #625436",
"e  c #62523A",
"r  c #705933",
"t  c #796124",
"y  c #786437",
"u  c #695C44",
"i  c #6E6249",
"p  c #73654C",
"a  c #7B6D55",
"s  c #7F725D",
"d  c #845A06",
"f  c #885B05",
"g  c #845708",
"h  c #875D10",
"j  c #936913",
"k  c #A26E07",
"l  c #A26D0A",
"z  c #A6720D",
"x  c #AC750A",
"c  c #B57A0C",
"v  c #B67C0D",
"b  c #BE7F11",
"n  c #886E2A",
"m  c #906E2F",
"M  c #8D712C",
"N  c #95732F",
"B  c #866D37",
"V  c #8A7138",
"C  c #937635",
"Z  c #967A32",
"A  c #877442",
"S  c #8E7446",
"D  c #927D4F",
"F  c #817663",
"G  c #847B68",
"H  c #BC820E",
"J  c #B18019",
"K  c #AD8C37",
"L  c #A3853B",
"P  c #DC950D",
"I  c #C08412",
"U  c #DB9710",
"Y  c #DC9B13",
"T  c #ED8D02",
"R  c #F08F05",
"E  c #EE9105",
"W  c #EE930C",
"Q  c #E69A0E",
"!  c #EF9F0E",
"~  c #F19305",
"^  c #F69A07",
"/  c #F19309",
"(  c #F49B0B",
")  c #EE9511",
"_  c #E59D13",
"`  c #EE9D1B",
"'  c #F09714",
"]  c #F09B15",
"[  c #F29F18",
"{  c #EFA00E",
"}  c #F4A10E",
"|  c #FBA50E",
" . c #FDA80E",
".. c #E9A316",
"X. c #F5A411",
"o. c #FAA511",
"O. c #F6AA14",
"+. c #FCAB13",
"@. c #F8A718",
"#. c #FBAD1A",
"$. c #FEB116",
"%. c #FDB41B",
"&. c #FEBA1E",
"*. c #D59A20",
"=. c #F2A323",
"-. c #F8AF22",
";. c #F4A528",
":. c #F5AB2E",
">. c #FDB523",
",. c #FAB326",
"<. c #FEBB22",
"1. c #FDBD2A",
"2. c #F5AB30",
"3. c #ECB737",
"4. c #F6B135",
"5. c #FDBD33",
"6. c #F4B73C",
"7. c #FCBD39",
"8. c #FDC02C",
"9. c #FDC134",
"0. c #FBC53A",
"q. c #FDC43B",
"w. c #978252",
"e. c #A2884A",
"r. c #B79845",
"t. c #BB9945",
"y. c #8B816D",
"u. c #998A6D",
"i. c #8E8573",
"p. c #928874",
"a. c #958C79",
"s. c #9C937E",
"d. c #A29274",
"f. c #C6A347",
"g. c #DDB04F",
"h. c #CCAD51",
"j. c #D0AE53",
"k. c #D5B254",
"l. c #DBB85C",
"z. c #EEBD41",
"x. c #F6BB44",
"c. c #FABE42",
"v. c #F8BD4B",
"b. c #E4BE5D",
"n. c #F1BF5C",
"m. c #FDC643",
"M. c #FDC845",
"N. c #F1C24B",
"B. c #FDC54A",
"V. c #FDCA4C",
"C. c #EAC65E",
"Z. c #FAC352",
"A. c #FDCC53",
"S. c #F4C45B",
"D. c #FDCC5C",
"F. c #FDD15C",
"G. c #ECC661",
"H. c #EDC861",
"J. c #F3CD64",
"K. c #FDCB61",
"L. c #FED364",
"P. c #FFD867",
"I. c #FED56A",
"U. c #9A9381",
"Y. c #A69B87",
"T. c #A99F91",
"R. c #AFA488",
"E. c #ADA495",
"W. c #AFA796",
"Q. c #B4A792",
"!. c #B4AB9B",
"~. c #B6AFA2",
"^. c #B8AFA4",
"/. c #B9B2A4",
"(. c #BBB5A6",
"). c #BCB5A9",
"_. c #C1BCAD",
"`. c #C1BDB0",
"'. c #CCC6BC",
"]. c #CCC9BE",
"[. c #CFCCC2",
"{. c #D1CDC4",
"}. c #D3CEC8",
"|. c #D3D0C6",
" X c #D6D3CC",
".X c #D8D4CD",
"XX c #DBD6D0",
"oX c #DDDAD4",
"OX c #E1DED9",
"+X c none",
"@X c none",
"#X c none",
"$X c none",
"%X c none",
"&X c none",
"*X c none",
"=X c none",
"-X c none",
";X c none",
/* pixels */
";X;X;X;X;X;X;X;X;X;X;X;X;X;X;X;X;X;X=X%X&X%X&X%X%X&X&X%X%X%X%X-X;X;X;X;X;X;X;X;X;X;X;X;X;X;X;X;X;X;X",
";X;X;X;X;X;X;X;X;X;X;X;X;X;X;X;X;X;X).w w w w w w w w w w w i oX;X;X;X;X;X;X;X;X;X;X;X;X;X;X;X;X;X;X",
";X;X;X;X;X;X;X;X;X;X;X;X;X;X-XoX XXXd.; - - - - - - - - - - 9 /..X XoX;X;X;X;X;X;X;X;X;X;X;X;X;X;X;X",
";X;X;X;X;X;X;X;X;X;X;X;X;X;X$Xe $ $ M H.G.G.G.G.G.G.H.G.C.S.l.0 $ % s ;X;X;X;X;X;X;X;X;X;X;X;X;X;X;X",
";X;X;X;X;X;X;X;X;X;X;X X^.^.E.B t t K V.V.V.K.I.V.V.V.V.V.A.N.j 1 1 V ^.~./.$X;X;X;X;X;X;X;X;X;X;X;X",
";X;X;X;X;X;X;X;X-X;X;Xp..   & l.I.I.V.<.$.O.A.L.8.%.+.%.<.<.&.+.|  .v . . O `.;X;X;X;X;X;X;X;X;X;X;X",
";X;X;X;X;X;X;X;X;X Xi.w.L L K z.m.m.1.$.5.c.m.q.<.&.%.%.&.&.&.%.%.%.Y k l l D U.$X;X;X;X;X;X;X;X;X;X",
";X;X;X;X;X;X;X;X=XW.o L I.I.F.1.&.&.%.O.B.L.8.<.&.&.<.&.&.<.&.&.&.<.%.+. .O.< % |.-X;X;X;X;X;X;X;X;X",
";X;X;X;X;X;X;X+Xp V f.b.I.M.9.%.+.+.1.V.m.9.<.<.&.&.<.<.<.<.&.>.&.&.&.%.0.V.*.H y y.=X;X;X;X;X;X;X;X",
";X;X;X;X;X-X@X_.; M I.I.F.1.%. .+.#.7.L.0.$.%.%.%.%.%.%.%.&.&.&.&.<.<.1.V.I.5...> r |.%X;X;X;X;X;X;X",
";X;X;X;X;X&Xi 0 k.C.I.V.1.%. .| ,.D.M.1.X.E ~ ~ E / ~ ~ ~ O.&.&.<.%.9.F.L.I.L.D...b ; a.;X;X;X;X;X;X",
";X;X;X;X X/.y n J.L.A.0.%.$.+.>.7.v.7.#.( ~ ~ ~ ~ ~ ~ ~ ~ X.#.O.%.5.V.I.I.I.D.V.>.U 1 S ).OX;X;X;X;X",
";X;X;X-Xs @ k.J.I.A.<.%. .%.1.F.Z.' T T ( +. . . .+. . . .~ E T [ K.I.I.P.P.9.<.<.%.X.z O W.;X;X;X;X",
";X;X;X-Xa + k.P.V.9.%.$.%.9.m.x.:.( ^ ^ o.$.$.%.$.+.+.+.&.O.X.:.4.4.N.I.A.M.8.&.&.%. .x   T.;X;X;X;X",
";X;X-X*Xa # k.F.<.%. .%.<.A.K.) ~  . .+.$.&.&.&.<.%.O.$.<.<.8.F.D.W =.L.M.&.&.&.<.%.$.x O T.-X;X;X;X",
";X;X).a e.t.6.9.%.+. .5.A.4.=.X.| %.%.%.&.<.&.&.&.&.%.&.&.0.A.L.K.N.x.;.,.&.&.&.&.&.%.Y v m F XX;X;X",
";X;Xs.  t.P.1.%.+.+.#.m.K.` T  .+.&.&.&.&.&.&.&.&.<.&.<.1.A.I.I.I.L.x.T X.>.&.&.&.&.&.%.+.f X ].;X;X",
";X;Xs.. r.L.8.%. .>.D.4.] |  .%.&.&.&.&.&.<.&.<.&.&.&.q.F.L.I.I.F.5.<.&.X.E $.<.&.&.&.%. .f $ ].;X;X",
"%X{.u.3 f.A.1.&.-.7.F.:.T | +.%.&.&.&.&.&.&.&.<.&.<.9.V.I.I.I.F.A.<.&.<.X.T #.&.&.&.&.%.+.l 2 Q. X-X",
"/.% C J.0.<.+.>.K.A.<.X.T ( +.&.&.&.&.&.&.&.&.<.%.9.L.L.L.I.L.9.<.&.&.&.X.T +.&.&.&.&.%. .} Q 2 7 +X",
"~.X Z L.5.%.5.7.V.0.X.} ^ +.$.&.&.&.&.<.&.&.&.<.q.V.I.I.I.F.V.1.&.&.<.&.#.( X.@.%.8.q.1.#.+.} > 5 +X",
"~.X Z I.1.O.D.D.<.#.T ^  .%.&.&.&.&.&.<.&.&.<.1.L.I.P.L.P.q.&.&.&.&.&.&.&.<.( T %.8.L.V.<.$.} > 5 +X",
"~.O Z P.A.B.q.q.<.O.T ^  .%.&.&.&.&.&.&.&.<.m.A.L.I.I.D.q.<.&.&.&.&.&.&.&.&.! R q.V.m.9.&.$.( > 5 +X",
"~.O Z I.I.F.5.<.<.O.T ^ +.%.&.&.&.<.&.&.<.1.A.I.I.L.L.M.<.&.<.&.&.<.&.&.<.&.( ) D.A.<.&.<.$.} > 5 +X",
"~.O Z P.M.8.<.&.<.O.T ^ +.%.&.<.&.&.&.&.m.F.L.I.I.F.9.<.<.&.&.<.&.&.<.&.&.&.( T 1.8.<.&.<.+.} > 5 +X",
"~.O Z L.q.&.&.<.<.+.T ^  .%.&.&.&.&.<.5.V.I.L.I.F.V.<.&.&.&.&.&.&.&.&.&.<.1.( ~ %.<.&.&.&.%.{ > 5 +X",
"~.O Z P.q.%.&.&.&.O.T ( +.%.<.&.&.&.q.L.L.I.I.L.9.<.<.&.&.&.&.&.<.&.&.&.M.F.=.T %.&.&.&.&.$.} > 5 +X",
"~.O Z P.q.&.<.&.&.O.T (  .%.&.&.<.9.V.I.I.I.A.V.<.<.<.&.&.&.&.<.&.<.<.q.M.A.[ E #.&.&.8.9.>.X.> 5 +X",
"/.X Z P.9.<.&.<.<.O.T ( | &.&.&.9.L.L.P.L.L.9.&.&.&.&.&.&.&.&.&.&.&.0.L.m.&.( E %.&.&.0.I.5.( : 5 OX",
"~.O Z P.q.<.&.&.&.%.X.X.( %.<.m.A.I.P.I.A.m.<.<.&.&.<.&.&.<.&.&.1.M.M.m.,.} } O.%.1.M.M.m.<.X.> 5 +X",
"/.% Z C.0.<.&.<.<.&.<.X.T #.8.F.I.I.I.I.q.&.&.<.&.<.&.&.&.<.<.<.8.L.V.&.} E O.8.<.9.L.V.&.#._ , 7 +X",
"#X[.u.4 f.A.8.&.&.&.&.} T x.F.I.I.I.A.9.<.<.&.&.&.&.&.&.<.<.<.B.A.0.8.&.{ T O.<.A.V.9.1.+.l , R.{.-X",
";X;XU.. t.P.8.&.&.&.&.@.) x.D.I.L.L.M.&.&.&.&.&.<.&.&.&.&.<.8.A.D.&.&.%.X./ -.9.F.A.1.$.} f O ].;X;X",
";X;Xs.  t.P.8.&.&.&.&.7.Z.=.` D.L.1.<.&.&.&.&.&.&.&.&.<.&.V.L.9.<.8.O.E X.%.V.F.9.<.<.$. .f X ].;X;X",
";X;X~.p e.f.6.9.&.<.9.B.K.2.=.v.7.<.&.&.<.&.>.&.&.&.&.1.q.M.V.8.&.#.O.( -.0.V.V.1.%.&...H M a XX;X;X",
";X;X-X*Xa @ k.A.<.9.D.D.K.K.v.) ! &.&.&.&.&.&.&.<.&.%.m.I.q.<.<.%.E ( &.M.L.0.<.&.&. .x O Y.=X;X;X;X",
";X;X;X-Xa + k.L.c.v.D.K.K.B.7.@.X.X.X.} #.&.&.&.&.8.m.m.M.-.} X.} } -.M.M.M.1.&.&.&.+.x . T.;X;X;X;X",
";X;X;X-Xs @ j.L.K.K.D.K.D.5.&.<.#.E T E X.&.&.&.&.9.L.M.&.} T T ~ <.0.I.M.&.&.&.&.&.O.x O E.;X;X;X;X",
";X;X;X;X{.!.y N S.K.D.B.9.<.&.>.&.+.#.O.X.! ! ( ( ] =.] ( X.O.#.-.V.V.0.8.&.&.&.#.U 1 S (.OX;X;X;X;X",
";X;X;X;X;X&Xu 9 g.n.K.q.&.&.&.&.&.&.&.<.} T W W T ~ E ~ E O.<.<.9.F.V.&.&.&.&.%.{ I * i.;X;X;X;X;X;X",
";X;X;X;X;X-XoX(.3 N I.m.&.&.<.&.&.&.&.&.%.%.m.Z.,.%.%.O.%.&.8.V.A.9.1.<.<.&.$.{ < q '.+X-X;X;X;X;X;X",
";X;X;X;X;X;X;XoXu A h.3.%.%.%.&.&.&.&.<.1.9.A.A.8.<.&.&.&.<.0.V.A.<.&.&.%.&.Y I q G =X;X;X;X;X;X;X;X",
";X;X;X;X;X;X;X-X*XW.O z  .+.+.%.&.&.&.<.M.L.0.<.&.&.<.<.&.V.L.9.<.<.%. .+. .< * ].=X-X;X;X;X;X;X;X;X",
";X;X;X;X;X;X;X;X;X[.F N c x H O.%.%.1.q.B.V.1.&.&.&.&.1.0.B.M.1.$.%...x x x S i.$X;X;X;X;X;X;X;X;X;X",
";X;X;X;X;X;X;X;X;X;X;Xi.  . # P O.o.5.I.q.&.<.&.&.&.&.0.L.q.%.O.O.| H . . O _.;X-X;X;X;X;X;X;X;X;X;X",
";X;X;X;X;X;X;X;X;X-X;X[.E.W.Y.h d g J 5.>.+.$.$.$.$.$.<.5.>.O.l d d M E.W.W.+X;X;X;X;X;X;X;X;X;X;X;X",
";X;X;X;X;X;X;X;X;X;X;X;X;X;X#X8 $ X h { } { { ! { { { { } } P 2 $ X s ;X;X;X;X;X;X;X;X;X;X;X;X;X;X;X",
";X;X;X;X;X;X;X;X;X;X;X;X;X;X-XXX[.|.d.= = : : : : = : : : : 3 !.}.[.oX;X;X;X;X;X;X;X;X;X;X;X;X;X;X;X",
";X;X;X;X;X;X;X;X;X;X;X;X;X;X;X;X;X;X).6 6 6 6 6 6 6 6 6 6 6 u XX;X;X;X;X;X;X;X;X;X;X;X;X;X;X;X;X;X;X",
";X;X;X;X;X;X;X;X;X;X;X;X;X;X;X;X;X;X=X@X@X@X$X$X@X$X$X$X$X@X$X-X;X;X;X;X;X;X;X;X;X;X;X;X;X;X;X;X;X;X"
};
