/* XPM */
static char *coin2_resized[] = {
/* columns rows colors chars-per-pixel */
"50 50 213 2 ",
"   c #372703",
".  c #392603",
"X  c #3D2A03",
"o  c #3F2D08",
"O  c #422D03",
"+  c #412D09",
"@  c #4C3203",
"#  c #45320A",
"$  c #4A350A",
"%  c #533402",
"&  c #5B3B03",
"*  c #533D0E",
"=  c #443211",
"-  c #4D3E1E",
";  c #533E12",
":  c #543F1E",
">  c #633D01",
",  c #5D430D",
"<  c #534014",
"1  c #5A4312",
"2  c #54411C",
"3  c #634403",
"4  c #694304",
"5  c #724C05",
"6  c #7E4C04",
"7  c #7D5504",
"8  c #664F17",
"9  c #67501A",
"0  c #695119",
"q  c #524323",
"w  c #665128",
"e  c #68542C",
"r  c #755C22",
"t  c #755B2A",
"y  c #685838",
"u  c #715E35",
"i  c #7F652A",
"p  c #776337",
"a  c #6C5F48",
"s  c #736449",
"d  c #7A6948",
"f  c #776C54",
"g  c #7C7159",
"h  c #835103",
"j  c #8C5705",
"k  c #855A05",
"l  c #895D09",
"z  c #935703",
"x  c #A15E04",
"c  c #9D6A09",
"v  c #A46305",
"b  c #A46E06",
"n  c #A56E08",
"m  c #B86903",
"M  c #A5710C",
"N  c #A8730A",
"B  c #B17907",
"V  c #B2790A",
"C  c #AA7813",
"Z  c #B37B16",
"A  c #806428",
"S  c #866C2D",
"D  c #8A6D2D",
"F  c #9A742B",
"G  c #856937",
"H  c #8D7034",
"J  c #957A35",
"K  c #977A38",
"L  c #836741",
"P  c #88754C",
"I  c #877959",
"U  c #887B64",
"Y  c #BD810D",
"T  c #B88513",
"R  c #9D8237",
"E  c #A48437",
"W  c #A7883C",
"Q  c #AB8D3D",
"!  c #BF9C3F",
"~  c #C4840D",
"^  c #CC8C0E",
"/  c #D7910E",
"(  c #DA970E",
")  c #DC940D",
"_  c #C78A11",
"`  c #C99215",
"'  c #E78A05",
"]  c #EE8D03",
"[  c #F08C02",
"{  c #EF9104",
"}  c #EE930B",
"|  c #E4980E",
" . c #F19506",
".. c #F49907",
"X. c #F29708",
"o. c #F39C0B",
"O. c #F99E0B",
"+. c #E69C10",
"@. c #EC9B12",
"#. c #F59A10",
"$. c #F19C14",
"%. c #EFA20F",
"&. c #F5A10E",
"*. c #FAA20D",
"=. c #FEAA0E",
"-. c #EAA515",
";. c #F5A312",
":. c #F9A511",
">. c #F5AA17",
",. c #FDAC13",
"<. c #F4A21D",
"1. c #FAA71B",
"2. c #FBAE19",
"3. c #FEB116",
"4. c #F7B51C",
"5. c #FDB51B",
"6. c #FEBA1E",
"7. c #C7962C",
"8. c #D5A636",
"9. c #F2A422",
"0. c #F4A829",
"q. c #F5AB2D",
"w. c #FEB424",
"e. c #FEBB21",
"r. c #F8B72B",
"t. c #FDBE2A",
"y. c #F5AC31",
"u. c #EBB83A",
"i. c #FCBD33",
"p. c #F8B739",
"a. c #FDC02D",
"s. c #FEC133",
"d. c #FDC43C",
"f. c #9B834C",
"g. c #998559",
"h. c #A58C44",
"j. c #A58C4C",
"k. c #B29646",
"l. c #B89943",
"z. c #AC925B",
"x. c #8C826E",
"c. c #998866",
"v. c #8D8572",
"b. c #948976",
"n. c #948978",
"m. c #958B79",
"M. c #A28C61",
"N. c #AC9768",
"B. c #BAA675",
"V. c #C49F48",
"C. c #C4A34B",
"Z. c #CAA749",
"A. c #C9A750",
"S. c #CCAC52",
"D. c #D9B557",
"F. c #DDBA5A",
"G. c #F4BB43",
"H. c #F5BD47",
"J. c #FABC42",
"K. c #E1BD5B",
"L. c #C5A96C",
"P. c #C5AB72",
"I. c #F6C047",
"U. c #FDC543",
"Y. c #FDC844",
"T. c #F9C24C",
"R. c #FECA4B",
"E. c #E6C25E",
"W. c #E8C55F",
"Q. c #FAC553",
"!. c #FDCC53",
"~. c #FBC658",
"^. c #FDCE5B",
"/. c #FCD057",
"(. c #FED15D",
"). c #EBC762",
"_. c #F3CD65",
"`. c #FECE61",
"'. c #FED364",
"]. c #FBD667",
"[. c #FED56A",
"{. c #E7C97F",
"}. c #998F80",
"|. c #9A9282",
" X c #A59C8B",
".X c #A89F8E",
"XX c #A9A28E",
"oX c #ACA496",
"OX c #B3A799",
"+X c #B2AA9C",
"@X c #B4ACA2",
"#X c #BCB5A9",
"$X c #C3BDB1",
"%X c #E8CC8C",
"&X c #F6DC96",
"*X c #CAC4BA",
"=X c #EFDAA8",
"-X c #F7E0A9",
";X c #CDC9C0",
":X c #D2CDC3",
">X c #DAD6CD",
",X c #DDDAD2",
"<X c #E1DED8",
"1X c #E4E2DC",
"2X c #E5E3E0",
"3X c #E9E7E4",
"4X c #EAE9E4",
"5X c #EEEDEA",
"6X c #F0EFEC",
"7X c #F2F0EC",
"8X c #F6F5F3",
"9X c #F8F6F4",
"0X c none",
/* pixels */
"0X0X0X0X0X0X0X0X0X0X0X0X0X0X0X0X0X<XXX.X.X.X.X.X.X.X.X.X.X.X XOX5X0X0X0X0X0X0X0X0X0X0X0X0X0X0X0X0X0X",
"0X0X0X0X0X0X0X0X0X0X0X0X0X0X0X0X0X$X= o o O o o o o o + o + o q >X0X0X0X0X0X0X0X0X0X0X0X0X0X0X0X0X0X",
"0X0X0X0X0X0X0X0X0X0X0X0X0X0X0X4Xm.I W r X i W Q W Q W W W W W f.U  X8X0X9X0X0X0X0X0X0X0X0X0X0X0X0X0X",
"0X0X0X0X0X0X0X0X0X0X0X0X0X0X8X:Xq r ).E # ! [.].].[.].[.'.'.'.E., y 1X9X0X0X0X0X0X0X0X0X0X0X0X0X0X0X",
"0X0X0X0X0X0X0X0X0X0X0X0X0X8Xx.d C.h.0 J C.u.s.s.s.a.Y.[.R.a.s.t.^ Z y  X0X0X0X0X0X0X0X0X0X0X0X0X0X0X",
"0X0X0X0X0X0X0X0X0X0X0X0X4X:Xp 0 S.l.< E (.d.6.6.6.t.d.(.d.6.5.5.,.( , P >X5X0X0X0X0X0X0X0X0X0X0X0X0X",
"0X0X0X0X0X0X0X0X0X0X0X0Xv.2 C.S.8 r K.H.a.6.6.6.a./.R.a.e.6.3.3.5.>.+.M - @X0X0X0X0X0X0X0X0X0X0X0X0X",
"0X0X0X0X0X0X0X0X0X0X1X$XU p h.k.t J !.d.6.6.6.s.d.!.U.6.e.6.3.3.e.e.3._ 5 c.$X5X0X0X0X0X0X0X0X0X0X0X",
"0X0X0X0X0X0X0X0X0X0XoXo N.=Xw 1 F.!.e.e.6.6.t.(.(.t.6.6.6.e.6.6.e.6.6.5.:.l # *X0X0X0X0X0X0X0X0X0X0X",
"0X0X0X0X0X0X0X0X1X|.g.K f.g.K E G.d.e.6.6.d.U.p.y.;.;.&.:.;.5.e.6.6.e.t.J.7.J c..X5X0X0X0X0X0X0X0X0X",
"0X0X0X0X0X0X0X9X*X# D ].S # S.(.a.4.6.e.e.!.'.@.] ] ] ] ] ] >.e.e.e.e.d.[.[._.0 q >X0X0X0X0X0X0X0X0X",
"0X0X0X0X0X0X3XU I B.g.r R C.u.s.e.6.6.s.!.p.<.;.&.*.O.*.*.*.o.o.4.t.R.^.[.].[.7.Z d m.9X0X0X0X0X0X0X",
"0X0X0X0X9X0X1Xq w -XN.X Q [.s.6.6.a.6.d.`.0.] *.,.,.,.,.,.=... .2.i.[.[.[.'.(.w.| @ a 7X0X0X0X0X0X0X",
"0X0X0X0X0X0X1X2 w &Xz.X Q ].a.6.6.s.'.u.@.O.*.5.6.5.5.6.5.5.,.*. .<.'.[.[.Y.t.,.) % a 9X0X0X0X0X0X0X",
"0X0X0X0X0X>X#Xp i P.f.0 7./.s.6.i.d.T.r. .*.,.6.6.6.e.6.e.w.w.w.<.0.Q.Q.^.s.6.5.+.7 p *X<X0X0X0X0X0X",
"0X0X0X0X8Xf < D.C.$ H ).I.t.6.a.'.T.} o.,.3.6.e.e.6.6.6.6.e.R.'.[.T.} ;.t.e.e.6.4.;.Y $ v.0X0X0X0X0X",
"0X0X0X0X8Xs $ K.S.O D [.d.4.d.U.R.i.]  .=.5.6.e.6.6.6.6.a.U.(.[.[.~.] &.6.6.e.6.6.3.~ O v.0X0X0X0X0X",
"0X0X0X0X7Xs * F.S.O D ].Y.e./.(.t.>.[ ..=.5.6.6.6.6.e.6.Y.[.[.[.].Q.} #.6.6.6.6.5.,.~ O U 0X0X0X0X0X",
"0X0X0X#Xg M.z.S D Q Z.d.Y.R.Y.s.;.o.O.*.5.6.6.6.6.6.s.R.^.[.].].Y.d.H.y.o.5.e.e.e.5.-.B F U ;X0X0X0X",
"0X0X0Xb.X L.%X: 9 _.R.e.R.'.a.2. . .,.5.6.6.6.6.e.e.d.[.[.].[./.a.a.].p.} >.5.4.5.6.5.,.b . +X0X0X0X",
"0X0X0Xn.O L.%X< 9 _.'./.d.a.-...O.:.6.6.6.6.6.6.a.!.(.[.[.[.U.t.e.e.s.U.~.q.X.5.e.e.5.,.n . +X0X0X0X",
"0X0X0Xb.X L.{.< 8 _.'.'.s.6.X.{ *.,.6.6.6.6.e.t.d.].[.[.'.^.a.6.6.6.6.d.].q.] 3.e.6.5.,.n + +X0X0X0X",
"0X0X0Xn.O C.).* 8 _.R.t.e.6.X.{ =.,.6.6.6.6.e./.'.[.[.[.Y.t.6.6.e.6.6.d.[.y.] >.e.6.5.,.n o OX0X0X0X",
"0X0X0Xn.X C.E.1 8 _.R.6.6.5.X.{ *.3.6.6.6.a.d.'.[.].'.R.s.6.e.6.6.e.6.U.].q.] >.6.6.5.,.b X +X0X0X0X",
"0X0X0Xb.O C.W.* 9 ).R.6.a.5.X.{ *.3.6.e.6.!.[.'.[.[.R.e.e.6.6.e.6.6.6.d.[.y.] 5.e.5.5.=.b o +X0X0X0X",
"0X0X0Xb.O C.).* 9 _.R.6.6.5.X.{ *.,.6.s.R.^.[.[.'.Y.s.e.6.e.6.6.e.6.6.d.[.q.] >.t.R.i.,.b o +X0X0X0X",
"0X0X0Xb.O C.E.* 8 _.R.6.6.6...{ *.3.e.U.[.[.[.'.^.e.6.6.6.6.6.6.6.6.6.d.[.q.] 5.a.(.R.,.n o +X0X0X0X",
"0X0X0Xn.O C.E.; 9 _.R.6.6.6.X.{ *.w.!.(.[.[.[.d.i.6.e.6.6.e.6.6.6.6.,.i.[.y.] J.!.s.r.,.b X +X0X0X0X",
"0X0X0Xb.O C.E.; 9 _.R.e.e.6.o. .*.w.^.'.'.'.^.t.6.5.5.e.e.e.6.e.e.6.w.p.~.y.$.T./.t.6.=.b + OX0X0X0X",
"0X0X0Xb.O C.W.* 8 _.R.6.e.e.5.2. ...2.J.].U.t.6.5.,.3.6.6.6.e.6.6.t.^.G.#.G.^.s.t.6.5.=.b . +X0X0X0X",
"0X0X0X+Xd j.k.A S l.8.5.5.e.s.i.0.9.O.r.R.i.6.6.6.,.3.6.6.6.6.e.s.d.I.y.o.J.].s.6.5.-.Y F f *X0X0X0X",
"0X0X0X0X5Xs * F.A.$ l :.5.e.!.[.[.H.{ ..,.5.e.e.6.6.6.6.6.6.6.t.(.~.} %.w.R.].a.5.3.~ O x.8X0X0X0X0X",
"0X0X0X0X8Xs * K.S.O k =.s.R.'.].[.T.] ..,.3.e.6.6.6.e.6.e.6.6.t.'.Q.{ <.Y.Y.Y.t.6.,.~ X x.0X0X0X0X0X",
"0X0X0X0X7Xf ; D.A.# k %.I.].].[.[.T.} ..=.5.6.6.6.6.e.6.6.6.e.t.^.T.} q.].U.6.5.6.:.Y @ b.0X0X0X0X0X",
"0X0X0X0X0X;XOXp A T M 5 V.[.].'.d.t.>.&. .:.,.5.6.6.6.6.5.e.Y.!.q.q.H.U.s.t.6.3.+.k G @X>X0X0X0X0X0X",
"0X0X0X0X0X0X1Xq 4 5.T   Q (.'.!.t.6.6.>. .o.=.5.6.t.t.t.t.t.R.~.$.<.^.R.e.6.6.3.) % a 9X0X0X0X0X0X0X",
"0X0X0X0X0X0X1Xq 3 r.C   Z 5.t.t.6.e.6.4.5.o.{ =.5.^.'.(.(.(.q.@.2.5.t.t.6.e.6.3.| @ a 8X0X0X0X0X0X0X",
"0X0X0X0X0X0X4Xg p ` M 4 c ^ >.5.e.6.6.e.e.;...&.1.T.T.Q.Q.Q.<.o.i.t.6.6.e.4.4./ V u v.8X0X0X0X0X0X0X",
"0X0X0X0X0X0X0X9X*X# h ' 6 @ ^ ,.6.e.6.6.6.6.5.{ ] ]  .} ] ] >.e.^./.e.6.6.3.&.5 q ,X9X0X0X0X0X0X0X0X",
"0X0X0X0X0X0X0X0X,Xx.H v j h b V >.5.6.e.6.5.5.;.o.&.o.#.&.;.i.U.R.U.e.6.5._ N P m.6X0X0X0X0X0X0X0X0X",
"0X0X0X0X0X0X0X0X0X0XXXo v ' > & ) 3.6.6.6.,.=.6.e.6.6.6.6.e./.'.t.6.e.3.:.k + *X0X0X0X0X0X0X0X0X0X0X",
"0X0X0X0X0X0X0X0X0X9X,XOXH 6 h j h n ,.5.6.5.5.6.6.6.e.6.s.R.Y.d.t.5.5.^ k g.+X2X0X0X0X0X0X0X0X0X0X0X",
"0X0X0X0X0X0X0X0X0X0X0X0XU = x v @ 5 @.>.e.6.6.6.6.e.e.t.R.].s.6.6.5.%.C = +X0X0X0X0X0X0X0X0X0X0X0X0X",
"0X0X0X0X0X0X0X0X0X0X0X9X2X$Xt > c z 3 N 3.5.6.6.6.5.s.^.Y.a.e.5.3.( 4 P ;X3X0X0X0X0X0X0X0X0X0X0X0X0X",
"0X0X0X0X0X0X0X0X0X0X0X0X0X8XU w v z % z ^ >.6.5.6.6.i.!.d.5.5.5.( Z e |.0X0X0X0X0X0X0X0X0X0X0X0X0X0X",
"0X0X0X0X0X0X0X0X0X0X0X0X0X0X6X*X2 > m h @ Y =.,.,.=.,.5.,.,.=.@.3 e ,X6X0X0X0X0X0X0X0X0X0X0X0X0X0X0X",
"0X0X0X0X0X0X0X0X0X0X0X0X0X0X0X3Xv.L z 4 O k V B B B B V B B B C d }.9X0X0X0X0X0X0X0X0X0X0X0X0X0X0X0X",
"0X0X0X0X0X0X0X0X0X0X0X0X0X0X0X0X0X#Xo X X X X X X O X X X X X 2 >X0X0X0X0X0X0X0X0X0X0X0X0X0X0X0X0X0X",
"0X0X0X0X0X0X0X0X0X0X0X0X0X0X0X0X0X<X.X X X X X X X X X X X X XoX5X0X0X0X0X0X0X0X0X0X0X0X0X0X0X0X0X0X",
"0X0X0X0X0X0X0X0X0X0X0X0X0X0X0X0X0X0X0X0X0X0X0X0X0X0X0X0X0X0X0X0X0X0X0X0X0X0X0X0X0X0X0X0X0X0X0X0X0X0X"
};
