/* XPM */
static char *coin3_resized[] = {
/* columns rows colors chars-per-pixel */
"50 50 214 2 ",
"   c None",
".  c #3D2A03",
"X  c #3B2702",
"o  c #412C04",
"O  c #412E0D",
"+  c #4B3403",
"@  c #47340A",
"#  c #523402",
"$  c #5B3C02",
"%  c #563E0C",
"&  c #543906",
"*  c #453513",
"=  c #4A3813",
"-  c #4B3A1B",
";  c #4B3618",
":  c #523E19",
">  c #633D03",
",  c #4E3E23",
"<  c #5D4003",
"1  c #5B410B",
"2  c #5B4412",
"3  c #5B461A",
"4  c #5A4618",
"5  c #614202",
"6  c #6C4A05",
"7  c #744B07",
"8  c #6F500E",
"9  c #7B5607",
"0  c #644A19",
"q  c #6D541D",
"w  c #6F581C",
"e  c #755713",
"r  c #544324",
"t  c #5C4D2E",
"y  c #5F5136",
"u  c #6E5928",
"i  c #755B21",
"p  c #625336",
"a  c #635438",
"s  c #6D5C30",
"d  c #725D36",
"f  c #7A6124",
"g  c #7C6739",
"h  c #6D5E43",
"j  c #6E6047",
"k  c #796D56",
"l  c #7E745F",
"z  c #824C02",
"x  c #804E0B",
"c  c #885805",
"v  c #955B05",
"b  c #A05F01",
"n  c #8B670E",
"m  c #93640A",
"M  c #916A0F",
"N  c #9C680B",
"B  c #976D19",
"V  c #9D7311",
"C  c #A16B09",
"Z  c #AA6A05",
"A  c #BA6B03",
"S  c #A8720E",
"D  c #B5790D",
"F  c #A97210",
"G  c #876C2B",
"H  c #956F29",
"J  c #927633",
"K  c #957937",
"L  c #856D36",
"P  c #C77703",
"I  c #D57E02",
"U  c #C26D04",
"Y  c #877145",
"T  c #947C4A",
"R  c #927A45",
"E  c #887757",
"W  c #806F57",
"Q  c #9F833F",
"!  c #A48537",
"~  c #B28B2F",
"^  c #C4840C",
"/  c #CB8B0C",
"(  c #DA8203",
")  c #D9940D",
"_  c #CA8B11",
"`  c #D69210",
"'  c #CF9B1A",
"]  c #ED8D02",
"[  c #E38802",
"{  c #F08E03",
"}  c #EF9104",
"|  c #E1960C",
" . c #EE930C",
".. c #EA9C0F",
"X. c #F19405",
"o. c #F59B0A",
"O. c #F69C09",
"+. c #E39B12",
"@. c #EE9B18",
"#. c #F39D13",
"$. c #F19E19",
"%. c #DAA31D",
"&. c #EFA00E",
"*. c #F2A20E",
"=. c #FAA30D",
"-. c #FEA90F",
";. c #EAAC1D",
":. c #E6A214",
">. c #F5A412",
",. c #FDA710",
"<. c #F5AA13",
"1. c #FDAC13",
"2. c #F4A31D",
"3. c #F6AC1A",
"4. c #FAAE1A",
"5. c #FEB116",
"6. c #FDB41B",
"7. c #FEBA1F",
"8. c #F3B41C",
"9. c #EEB11A",
"0. c #C4993C",
"q. c #CEA136",
"w. c #F2A323",
"e. c #F7AC28",
"r. c #FBB423",
"t. c #FEBB23",
"y. c #FCB629",
"u. c #FDBD2A",
"i. c #F5B324",
"p. c #F4AE33",
"a. c #ECB73A",
"s. c #F5B335",
"d. c #FDBD32",
"f. c #F7B63D",
"g. c #E9AF27",
"h. c #FDC02D",
"j. c #FDC234",
"k. c #FDC43B",
"l. c #FDC83F",
"z. c #9B8449",
"x. c #9A8252",
"c. c #998357",
"v. c #B29444",
"b. c #BA9C47",
"n. c #B99A48",
"m. c #A68D4E",
"M. c #8F8265",
"N. c #948467",
"B. c #8F8672",
"V. c #948A76",
"C. c #9D947F",
"Z. c #B69E61",
"A. c #C6A54D",
"S. c #C8A74A",
"D. c #CCAC52",
"F. c #CAAC5C",
"G. c #D5B359",
"H. c #F8BC46",
"J. c #E1BC59",
"K. c #EEBE44",
"L. c #FDC543",
"P. c #FDC846",
"I. c #FAC24A",
"U. c #FECA4B",
"Y. c #E5C25D",
"T. c #E8C35D",
"R. c #FDCD53",
"E. c #FDCE5B",
"W. c #FBC651",
"Q. c #FDD05B",
"!. c #FFD157",
"~. c #ECC661",
"^. c #EEC963",
"/. c #F3CD63",
"(. c #FDCE61",
"). c #F5CF68",
"_. c #FED364",
"`. c #FDD569",
"'. c #FBD568",
"]. c #E9C773",
"[. c #FDD87D",
"{. c #A39B8B",
"}. c #AAA394",
"|. c #AFA89A",
" X c #B1AB9C",
".X c #B6B1A4",
"XX c #BBB3A6",
"oX c #BDB7AB",
"OX c #C2BBAE",
"+X c #C3BEB4",
"@X c #E9CD8C",
"#X c #E4C886",
"$X c #FCD884",
"%X c #FEDE9B",
"&X c #F5D894",
"*X c #EAD08E",
"=X c #FEE19C",
"-X c #C8C3B8",
";X c #D6D2CA",
":X c #D7D2C9",
">X c #DFDFD7",
",X c #D3CDC5",
"<X c #E1DDD8",
"1X c #E4E1DD",
"2X c #E7E5E0",
"3X c #E8E6E1",
"4X c #ECEAE6",
"5X c #EFEDE9",
"6X c #F0EEEB",
"7X c #F2F1EF",
"8X c #F5F4F3",
"9X c #F9F7F6",
"0X c #F9F9F6",
"qX c none",
/* pixels */
"      qXqXqXqXqXqXqXqXqXqXqXqXqXqXqXqX8X5X4X4X5X4X4X5X4X4X5X4X4X4X7XqXqXqXqXqXqXqXqXqXqXqXqXqXqXqXqX",
"      qXqXqXqXqXqXqXqXqXqXqXqXqX0XqXqX Xa a a a p a a a p a p p p V.0XqXqXqXqXqXqXqXqXqXqXqXqXqXqXqX",
"      qXqXqXqXqXqXqXqXqXqXqXqXqXqX7X:XV.4 . . 1 2 2 2 2 2 2 2 2 1 W ,X4XqXqXqXqXqXqXqXqXqXqXqXqXqXqX",
"      qXqXqXqXqXqXqXqXqXqXqXqXqXqX-X- x.*Xs @ D.^.T.T.^.^.T.^.T.~.v.; }.qXqXqXqXqXqXqXqXqXqXqXqXqXqX",
"      qXqXqXqXqXqXqXqXqXqXqXqX8XoX{.g x.Z.L G Y._.R.U.R.Q.`.!.R.R.q.9 c.XX4XqXqXqXqXqXqXqXqXqXqXqXqX",
"      qXqXqXqXqXqXqXqXqXqXqXqX>X- u &Xx.o b.`.'.!.u.7.7.R.'.h.7.7.6.-.m * +XqXqXqXqXqXqXqXqXqXqXqXqX",
"      qXqXqXqXqXqXqXqXqXqX0X}.M.! n.$X! . b.`.U.k.7.h.U.P.l.h.7.5.5.6.m . +XqXqXqXqXqXqXqXqXqXqXqXqX",
"      qXqXqXqXqXqXqXqXqX0X3Xj 2 ~.'.).K @ b.Q.h.7.t.l._.k.7.7.6.-.4.t.M * oX0XqXqXqXqXqXqXqXqXqXqXqX",
"      qXqXqXqXqXqXqXqXqX}.h m.D.'.D.w J A.a.j.7.h.R.P.j.u.7.7.7.6.6.7.) _ g l 4XqXqXqXqXqXqXqXqXqXqX",
"      qXqXqXqXqXqXqX8X<XM.4 D.`.Y.v.1 Q _.j.7.u.j.E.L.6.6.8.6.6.7.7.7.6.*.c 0 -X3XqXqXqXqXqXqXqXqXqX",
"      qXqXqXqXqXqXqXOXr c.@X&X#X0 f G.I.u.7.u.!.I.@. .X.X.X.} ..7.t.7.7.7.:./ 0 l 0XqXqXqXqXqXqXqXqX",
"      qXqXqXqXqXqXqX.XX m.=X=X#X= w ).P.7.h.k.I.H.X.X.X.X.X.X.O.<.5.7.7.7.5.) & h 0XqXqXqXqXqXqXqXqX",
"      qXqXqXqXqXqXqXXXX x.=X=X#X= u ).P.t.R.E.@.X.,.,.,.,.-.-.=.} o.t.7.7.7.%.& h 8XqXqXqXqXqXqXqXqX",
"      qXqXqXqXqX4X{.N.J F.$XZ.z.K ~ I.P.P.H.p.#.O.5.5.5.4.5.5.1.O.O.>.8.t.k.a.C H {.-X0XqXqXqXqXqXqX",
"      qXqXqXqXqX;X* f `.`.Q.q & Y.!.h.l.'.w.{ =.5.7.7.7.t.7.t.6.1.=.] >.t.!.Q.r.^ X B.qXqXqXqXqXqXqX",
"      qXqXqXqXqX:X; f '.`.'.q = Y.Q.R.f.w.>.=.5.6.t.7.7.7.7.7.t.6.<.=.O.>.W.(.5.^ . B.qXqXqXqXqXqXqX",
"      qXqXqXqX6X-X3 G '.Q.Y.i 2 Y.'._.s.] O.-.6.7.7.7.7.7.7.7.7.7.6.-.O.] I.E.6.^ & M.4X8XqXqXqXqXqX",
"      qXqXqX6Xk s D.T.'.Q 2 v.Y.'.Q.h.3.] =.1.6.7.7.7.7.6.1.7.7.7.6.-.O.] r.u.t.3.) B t +XqXqXqXqXqX",
"      qXqXqX5Xy 2 ~.`.'.J . S.`.Q.I.6.*.X.=.4.7.7.7.7.7.5.1.7.7.7.r.y.2.@.3.5.7.6.1.N . XXqXqXqXqXqX",
"      qXqXqX5Xy 2 ~.'.'.J . A._.h.5.X.O.-.6.6.7.7.7.7.7.7.7.7.7.6.k._._.(.w.} 6.6.1.C . XXqXqXqXqXqX",
"      qXqXqX5Xp 4 ].[.[.K . A._.h.<.] O.-.5.t.7.7.7.7.7.t.7.t.t.k.U.`.`._.w.} 6.6.1.C . oXqXqXqXqXqX",
"      qXqXqX5Xp 3 @X=X=XR o A._.h.1.] O.-.6.7.7.7.7.t.7.7.7.7.u._.`.`.`._.w.} r.6.,.C . XXqXqXqXqXqX",
"      qXqXqX6Xp 2 @X=X%XR o S._.h.<.} O.-.6.7.7.7.7.7.7.t.t.P.U.`.E.k.E._.w.} 8.6.-.C . XXqXqXqXqXqX",
"      qXqXqX5Xp 3 @X=X%XR o A._.t.5.] O.-.6.7.7.7.7.7.7.t.u.Q.`._.U.t.P.`.$.} 6.6.-.C . XXqXqXqXqXqX",
"      qXqXqX5Xp 4 *X=X=XR . A._.u.1.] O.-.6.7.7.7.t.7.7.L.Q._._.j.h.7.U.'.2.} 6.7.,.C . XXqXqXqXqXqX",
"      qXqXqX5Xp 4 ].$X$XK . A._.u.1.] O.-.6.7.7.7.7.u.h.R.`.E.R.u.6.5.P._.w.} 6.6.1.C . XXqXqXqXqXqX",
"      qXqXqX5Xp < g.h.h.B . D._.u.<.] O.-.6.7.7.7.7.k._.`.`.k.7.7.6.1.L._.w.] 6.6.-.C . XXqXqXqXqXqX",
"      qXqXqX5Xp < ;.7.7.M . A._.u.5.] O.-.6.7.7.t.j.U._.E.U.u.7.t.7.1.L._.w.} 6.6.-.C . XXqXqXqXqXqX",
"      qXqXqX5Xp < ;.7.7.n @ S._.u.<.} o.,.6.t.7.j._.`.`.k.7.7.7.7.7.7.P.).2.} 7.6.1.C . XXqXqXqXqXqX",
"      qXqXqX6Xp < ;.7.7.n . S._.h.-.] o.,.5.u.L.U._.Q.k.h.t.7.7.7.7.7.P._.2.} 5.6.-.C . XXqXqXqXqXqX",
"      qXqXqX6Xp < ;.7.7.M o S._.h.3.} o.,.6.u.Q.'.`.U.7.7.7.7.7.7.t.t.P.(.w.X.7.6.-.C @ XXqXqXqXqXqX",
"      qXqXqX6Xy < ;.7.t.M o S._.t.6.5.*.X.,.6.E.Q.k.u.7.t.7.5.5.6.j.E.s.2.3.6.7.6.-.N X XXqXqXqXqXqX",
"      qXqXqX5Xk 0 ' ;.i.V 1 ~ Y.t.6.t.>.] =.4.R.R.t.7.7.7.7.4.5.7.k.`.p.] 3.7.u.8.| B r +XqXqXqXqXqX",
"      qXqXqXqX4X+X4 n 7.9.%.e 0 ..4.7.*.] O.1.t.u.7.7.7.7.t.6.6.6.k._.s.] 4.u.!.S.& M.1X8XqXqXqXqXqX",
"      qXqXqXqXqX:X; 9 t.7.8.8 + +.4.j.y.w.>.=.5.6.7.7.7.7.7.7.t.j.L.L.e...y.k.R.0.. B.qXqXqXqXqXqXqX",
"      qXqXqXqXqX:X* 9 7.7.8.8 + ..y._._.'.w.} =.1.7.7.7.7.7.7.u._.H. .*.t.R.E.5.^ . B.qXqXqXqXqXqXqX",
"      qXqXqXqXqX2X{.c.V _ *.Z v m ~ E.Q.P.i.*.O.=.5.u.I.P.P.P.L.s.e.*.y.P.L.s.S H V.+XqXqXqXqXqXqXqX",
"      qXqXqXqXqXqXqX.XX m X.] I + q /.P.7.t.7.X.X.-.d.`._._.`.E. .#.t.U._.y.) # j 8XqXqX0XqXqXqXqXqX",
"      qXqXqXqXqXqXqXXXX v { { I + 8 e.y.7.7.6.5.*.O.#.w.w.w.w.w.<.y.R.P.k.6.| # h 9XqXqXqXqXqXqXqXqX",
"      qXqXqXqXqXqXqXoX: v ( ] ( $ 9 ) <.t.7.7.7.5.} ] ] } } ] o.t.k._.k.6.>./ 0 k 9XqXqXqXqXqXqXqXqX",
"      qXqXqXqXqXqXqX5X,XE $ P ] I Z % F ,.r.7.5.4.5.8.5.5.6.6.r.Q.U.h.7.>.c q OX1XqXqXqXqXqXqXqXqXqX",
"      qXqXqXqXqXqXqXqXqX}.p F P [ A o v -.5.6.4.4.7.t.7.t.7.u.k.E.P.6.5.>.6 r 1XqXqXqXqXqXqXqXqXqXqX",
"      qXqXqXqXqXqXqXqXqX9X1Xd # A b o m ,.5.t.7.6.7.7.7.7.t.E.E.u.t.7.5.*.6 , <XqXqXqXqXqXqXqXqXqXqX",
"      qXqXqXqXqXqXqXqXqXqX9X{.W v z 6 c D :.6.6.6.7.7.7.j.k.U.P.t.7.6.` F Y V.4XqXqXqXqXqXqXqXqXqXqX",
"      qXqXqXqXqXqXqXqXqXqXqXqX<X, > U z X D -.-.5.6.7.7.U._.j.7.7.5.<.m O +XqXqXqXqXqXqXqXqXqXqXqXqX",
"      qXqXqXqXqXqXqXqXqXqXqXqX6XXXN.7 z c c m +.1.5.5.5.y.d.6.5.6.` c x. X1XqXqXqXqXqXqXqXqXqXqXqXqX",
"      qXqXqXqXqXqXqXqXqXqXqXqX0XqX+X, x A > + / *.*.*.&.&.&.&.o.&.D O }.qXqXqX0XqXqXqXqXqXqXqXqXqXqX",
"      qXqXqXqXqXqXqXqXqXqXqXqXqXqX6X:XE $ o . $ 5 5 5 < 5 5 < 5 < Y -X2XqXqXqXqXqXqXqXqXqXqXqXqXqXqX",
"      qXqXqXqXqXqXqXqXqXqXqXqXqXqXqXqX|.t t t t t t t t t t t t t V.0XqXqXqXqXqXqXqXqXqXqXqXqXqXqXqX",
"      qXqXqXqXqXqXqXqXqXqXqXqXqXqXqXqX7X2X2X2X3X2X2X3X3X3X3X2X3X1X5XqXqXqXqXqXqXqXqXqXqXqXqXqXqXqXqX"
};
