/* XPM */
static char *coin8_resized[] = {
/* columns rows colors chars-per-pixel */
"50 50 204 2 ",
"   c #3A2601",
".  c #3D2B04",
"X  c #422D04",
"o  c #453005",
"O  c #4C3100",
"+  c #44320C",
"@  c #49340B",
"#  c #4E390C",
"$  c #523603",
"%  c #573B07",
"&  c #453411",
"*  c #493711",
"=  c #4E3A11",
"-  c #4C3B1B",
";  c #563F10",
":  c #673F00",
">  c #5E4105",
",  c #5B4412",
"<  c #5B4517",
"1  c #6C4706",
"2  c #744702",
"3  c #734D05",
"4  c #765307",
"5  c #604914",
"6  c #654C1C",
"7  c #71571E",
"8  c #594B2E",
"9  c #5D4F31",
"0  c #5E5031",
"q  c #69562B",
"w  c #755A25",
"e  c #69593E",
"r  c #735E33",
"t  c #7F6627",
"y  c #79622E",
"u  c #7C6737",
"i  c #6B5C42",
"p  c #6E6349",
"a  c #73674D",
"s  c #796E58",
"d  c #7D7258",
"f  c #854E02",
"g  c #8B5503",
"h  c #8A5C08",
"j  c #9A6609",
"k  c #976A0D",
"l  c #9A6808",
"z  c #89681C",
"x  c #9C7010",
"c  c #A96304",
"v  c #B86C04",
"b  c #AA760B",
"n  c #AE7509",
"m  c #B57A0C",
"M  c #A67513",
"N  c #856825",
"B  c #83662B",
"V  c #82682C",
"C  c #957126",
"Z  c #856B33",
"A  c #876538",
"S  c #957735",
"D  c #C07F0A",
"F  c #967F49",
"G  c #867553",
"H  c #84775B",
"J  c #897D66",
"K  c #BE820C",
"L  c #BE8B14",
"P  c #9C8136",
"I  c #A48132",
"U  c #A7893C",
"Y  c #AB8C3D",
"T  c #BA983D",
"R  c #C6870D",
"E  c #D58A0A",
"W  c #CC8E14",
"Q  c #D08D10",
"!  c #D89713",
"~  c #E68703",
"^  c #EE8E04",
"/  c #F18F03",
"(  c #EE9206",
")  c #EE930B",
"_  c #E49C0E",
"`  c #F09204",
"'  c #F39807",
"]  c #F19609",
"[  c #F49B0A",
"{  c #F89F0B",
"}  c #EC9E10",
"|  c #F19D12",
" . c #F19F1D",
".. c #F5A20E",
"X. c #FBA50E",
"o. c #FFAE0E",
"O. c #ECA512",
"+. c #F5A412",
"@. c #F8A511",
"#. c #F5AE16",
"$. c #FDAC13",
"%. c #F3A31C",
"&. c #F8A71A",
"*. c #F6AC19",
"=. c #FCAF1A",
"-. c #FEB116",
";. c #FDB51B",
":. c #FEBA1E",
">. c #D7A02B",
",. c #F1A323",
"<. c #F4A927",
"1. c #F4AE29",
"2. c #FEBB22",
"3. c #F7B42B",
"4. c #FEBE2A",
"5. c #F5AE33",
"6. c #EEBA3A",
"7. c #F7B335",
"8. c #FDBE32",
"9. c #FDBF38",
"0. c #FDC02E",
"q. c #FDC133",
"w. c #F7C43D",
"e. c #FDC43C",
"r. c #9D8446",
"t. c #9B844B",
"y. c #978454",
"u. c #A88D44",
"i. c #AC924E",
"p. c #B49746",
"a. c #BB9D46",
"s. c #BFA04A",
"d. c #8C826F",
"f. c #90846F",
"g. c #8F8370",
"h. c #948976",
"j. c #9C927E",
"k. c #A69062",
"l. c #A19479",
"z. c #BEAA79",
"x. c #C3A24A",
"c. c #CDAA4E",
"v. c #D4AD49",
"b. c #CCAB52",
"n. c #D0AC51",
"m. c #D3B255",
"M. c #DFBC5C",
"N. c #F6BC45",
"B. c #F9BB43",
"V. c #F7BC48",
"C. c #F9BF49",
"Z. c #E2BD5C",
"A. c #C8AC6E",
"S. c #CDB175",
"D. c #F3C141",
"F. c #FDC543",
"G. c #FDC844",
"H. c #FAC34D",
"J. c #FECA4C",
"K. c #E5C35F",
"L. c #FAC551",
"P. c #FDCC54",
"I. c #FDCE5B",
"U. c #FED15C",
"Y. c #E5C161",
"T. c #EFC962",
"R. c #F0C764",
"E. c #F1CA63",
"W. c #FDD364",
"Q. c #FFD867",
"!. c #FED56A",
"~. c #FFD96A",
"^. c #E0C27B",
"/. c #9E9482",
"(. c #A69C8A",
"). c #ACA38D",
"_. c #ADA595",
"`. c #B3A798",
"'. c #B3AA9D",
"]. c #B5ADA2",
"[. c #BCB4A6",
"{. c #BBB6AA",
"}. c #C2BBAB",
"|. c #C4BEB4",
" X c #E1C586",
".X c #F0D899",
"XX c #C7C2B6",
"oX c #CBC7BD",
"OX c #FBE2AB",
"+X c #D2CCC4",
"@X c #D4D1C6",
"#X c #D7D2C9",
"$X c #D9D6CE",
"%X c #DDDAD4",
"&X c #E0DDD8",
"*X c #E4E3DD",
"=X c #EBE9E5",
"-X c #EEEDE9",
";X c #F1EFED",
":X c #F2F1EE",
">X c #F6F5F3",
",X c #F9F7F6",
"<X c none",
"1X c none",
/* pixels */
"1X1X1X1X1X1X1X1X1X1X1X1X1X1X1X1X1X1X1X1X1X1X1X1X1X1X1X1X1X1X1X1X1X1X1X1X1X1X1X1X1X1X1X1X1X1X1X1X1X1X",
"1X1X1X1X1X1X1X1X1X1X1X1X1X1X1X<X1X<X|._._._._._._._._._._._._._.$X1X1X1X1X1X1X1X1X1X1X1X1X1X1X1X1X1X",
"1X1X1X1X1X1X1X1X1X1X1X1X1X1X1X1X1X:Xa   X . . . . X . X . . . . /.1X1X1X1X1X1X1X1X1X1X1X1X1X1X1X1X1X",
"1X1X1X1X1X1X1X1X1X1X1X1X1X1X1X1X}.J r.u.u.Y Y Y Y u.Y u.S X 6 Y y.d.%X1X1X1X1X1X1X1X1X1X1X1X1X1X1X1X",
"1X1X1X1X1X1X1X1X1X1X1X1X1X1X<X-Xh.o x.Q.Q.Q.!.Q.Q.Q.Q.Q.v.# N T.S @ {.>X<X1X1X1X1X1X1X1X1X1X1X1X1X1X",
"1X1X1X1X1X1X1X1X1X1X1X1X1X1XoXi r.c.6.0.8.e.Q.P.4.8.q.0.3.Q M 6 P c.u s -X1X1X1X1X1X1X1X1X1X1X1X1X1X",
"1X1X1X1X1X1X1X1X1X1X1X1X>X%X).< U U.q.;.4.e.I.F.:.:.:.:.:.-.K % P m.t q XX*X1X1X1X1X1X1X1X1X1X1X1X1X",
"1X1X1X1X1X1X1X1X1X1X1X1X%X9 y M.D.2.-.=.P.P.4.2.:.2.:.:.:.:.#._ h ; a.n.8 d <X1X1X1X1X1X1X1X1X1X1X1X",
"1X1X1X1X1X1X1X1X1X1X<XoX).y P P.e.:.3.8.P.F.2.:.:.2.:.2.:.:.;.=.n 4 U i.u H ].%X1X1X1X1X1X1X1X1X1X1X",
"1X1X1X1X1X1X1X1X<X1X-Xi , M.P.2.:.:.P.W.4.:.:.:.:.:.:.2.:.:.:.:.$.} 1 < .XA.. j.1X1X1X1X1X1X1X1X1X1X",
"1X1X1X1X1X1X1X1X1X|.h.F U w.e.2.q.G.G.F.&.+.{ +.+.@.+.;.2.:.:.:.;.=.m k G y.S y.h.%X1X1X1X1X1X1X1X1X",
"1X1X1X1X1X1X1X<X:XJ X n.U.4.:.:.J.W.q.-.` ^ ^ ^ ^ ^ ( =.:.:.:.:.2.2.-.! $ w E.P X [.,X1X1X1X1X1X1X1X",
"1X1X1X1X1X1X1XXXp r.x.6.q.2.0.P.F.0.&.] ....X.X...7.C.O...;.2.:.e.P.P.V.R b 7 y.z.G d =X1X1X1X1X1X1X",
"1X1X1X1X1X1X1X'.  Y Q.q.:.0.e.W.F.;.[ ( X.$.X.$.$.F.W. .| ;.;.4.J.!.!.I.;.R . y.OXr - $X1X1X1X1X1X1X",
"1X1X1X1X1X1X1X'.  U !.q.2.U.P.0.&.` ..X.;.:.;.:.:.4.0.P.H.) <.W.!.W.!.I.=.D . t..Xr - %X1X1X1X1X1X1X",
"1X1X1X1X1X:XoXl.7 T P.e.q.P.e.;...` X.-.:.:.:.:.:.;.4.L.H.,.5.H.I.!.I.H.;.Q 4 S A.Z r '.@X,X1X1X1X1X",
"1X1X<X1X1X$X< V T.w.4.U.U.4.=.^ [ X.:.:.:.:.:.:.:.:.:.:.q.W.B.) N.!.e.:.:.#.+.j + a.M.< p :X1X1X1X1X",
"1X1X1X1X1X$X. t !.J.F.G.F.2.#.^ [ X.-.:.:.:.:.2.:.:.:.e.G.!.B.^ 1.G.4.:.2.;.$.l . s.K.; e :X1X1X1X1X",
"1X1X1X1X<X+X* t !.!.W.q.2.2.$.^ [ $.;.:.:.2.:.:.:.:.4.U.!.!.B.^ @.2.2.:.2.:.X.l X x.Z., e -X1X1X1X1X",
"1X1X1X:Xh.G u.b.!.J.e.4.;.{ ' { X.;.:.:.:.:.:.:.2.e.P.W.!.!.I.V.<.[ ;.:.:.:.;.! n z B k.k.s ].1X1X1X",
"1X1X1X=X9 5 I.W.W.e.;.;.=.` ' $.;.:.2.:.:.:.:.2.4.P.!.!.!.W.W.W.5.) &.:.:.:.2.-.X.3 *  XS.X g.1X1X1X",
"1X1X1X=X0 5 T.P.0.4.:.O.' X.$.;.:.:.:.:.2.2.:.e.I.!.!.!.I.8.0.4.F.L.,.[ :.2.2.-.@.3 -  XS.o g.1X1X1X",
"1X1X1X=X0 , T.J.:.:.;.' ` X.$.:.:.:.:.:.:.2.0.G.!.W.!.I.J.2.:.2.J.!. .` ;.:.:.-.X.3 # ^.A.o g.1X1X1X",
"1X1X1X=X0 < T.J.:.:.;.' ` X.$.:.:.:.2.:.:.0.W.Q.!.!.W.q.2.:.:.:.G.I. .` :.:.2.-...4 # M.b.o g.1X1X1X",
"1X1X1X=X9 5 E.J.:.:.:.] ( X.-.:.:.:.2.:.q.J.W.!.!.I.J.0.:.:.:.:.J.W. ./ :.:.2.-...3 $ Z.c.o d.1X1X1X",
"1X1X1X=X0 < E.J.:.:.;.' ` X.o.:.2.2.:.4.I.!.!.!.!.w.;.2.;.:.:.2.J.W. ./ -.2.2.-...3 # M.c.o f.1X1X1X",
"1X1X1X=X9 5 E.J.:.:.:.] / X.-.:.:.:.e.P.W.!.!.P.w.4.:.2.:.:.:.:.J.W. .( ;.2.:.-.@.3 # M.c.o f.1X1X1X",
"1X1X1X=X9 5 E.J.:.:.:.' ^ X.$.:.:.4.P.!.!.!.Q.G.:.:.:.:.:.:.:.2.G.W. .( ;.2.:.-.@.3 # M.c.o d.1X1X1X",
"1X1X1X=X9 < E.J.:.:.:.) ` X.X.$.9.I.W.!.!.U.q.4.:.:.:.:.:.2.:.:.J.Q. .( #.:.:.-.X.4 # M.c.o f.1X1X1X",
"1X1X1X=Xq < R.J.2.:.:.] ' X.X.$.9.!.!.!.W.J.2.:.:.:.:.:.:.2.0.0.D.L.%.] :.4.0.;.@.3 # M.c.X g.1X1X1X",
"1X1X1X*X8 , R.P.:.:.:.:.-.` ' X.e.!.!.W.0.2.:.;.$.-.:.:.:.:.q.W.5.) -.;.:.q.U.e.@.4 @ M.b.X d.1X1X1X",
"1X1X1X:Xh.G p.v.e.4.:.2.2.<.,.{ 3.H.J.J.4.:.:.;.-.:.:.:.4.q.e.N.1.[ ;.0.q.w.J.>.m z t Y u.d '.1X1X1X",
"1X1X1X1X1X+X& B Q.e.:.:.4.W.V.( { $.:.2.:.2.:.:.:.:.:.:.q.W.B.^ +.:.:.4.W.L.-.l X a.Z., i =X1X1X1X1X",
"1X1X1X1X1X@X+ t !.F.:.e.G.!.C.^ ' $.-.:.:.:.2.:.:.:.2.:.4.W.V.^ &.2.w.G.G.q.$.l . s.Y., e :X1X1X1X1X",
"1X1X1X1X1X#X- V E.w.4.U.!.!.C.( [ X.;.:.2.:.:.:.:.:.2.2.q.W.B.( @.0.I.U.4.#...k X p.M.< p :X1X1X1X1X",
"1X1X1X1X1X:XXXl.w T P.Q.!.!.P.*...' X.-.;.:.:.:.:.:.4.G.H.,.%.*.e.P.w.q.2.! 4 k W z y `.+X,X1X1X1X1X",
"1X1X1X1X1X1X1X'.  U !.!.Q.W.G.2.+.( ..$.2.4.4.4.4.4.4.P.C.) +.4.G.U.4.;.:.L   x 2.4 - %X1X1X1X1X1X1X",
"1X1X1X1X1X1X1X'.  Y ~.!.U.q.4.2.;.;.[ ) L.W.W.W.U.W.I.,.| ;.q.W.F.4.2.;.-.K   x :.4 - $X1X1X1X1X1X1X",
"1X1X1X1X1X1X1XXXi r.c.T.U.4.:.2.:.:...| C.L.H.C.H.H.C.| | 8.G.P.q.:.;.#.Q b 1 k L Z s *X1X1X1X1X1X1X",
"1X1X1X1X1X1X1X<X>XJ o n.W.2.:.2.2.2.:.;.) ^ ^ ^ ^ ^ ) ;.4.W.J.2.4.:.-._ $ 1 ~ g . [.,X1X1X1X1X1X1X1X",
"1X1X1X1X1X1X1X1X1X{.J r.Y D.q.2.:.:.:.:.+.{ [ +.....+.9.G.G.e.:.:.#.K c g g c Z g.$X1X1X1X1X1X1X1X1X",
"1X1X1X1X1X1X1X1X1X1X:Xe , K.P.2.:.:.2.:.:.2.2.2.:.2.4.U.U.4.:.:.=._ 1 $ E v . j.<X1X1X1X1X1X1X1X1X1X",
"1X1X1X1X1X1X1X1X1X1X,X|.(.u I J.e.:.:.:.:.:.:.:.:.w.G.F.q.2.-.-.m 4 g g 2 B `.$X1X<X1X1X1X1X1X1X1X1X",
"1X1X1X1X1X1X1X1X1X1X1X1X%X8 y Y.w.:.:.:.2.:.:.2.4.J.W.4.:.:.=.} h O c c = s <X1X1X1X1X1X1X1X1X1X1X1X",
"1X1X1X1X1X1X1X1X1X1X1X1X>X$X).< M -.;.:.:.2.2.e.U.F.4.2.:.-.R > g c : 6 |.&X<X1X1X1X1X1X1X1X1X1X1X1X",
"1X1X1X1X1X1X1X1X1X1X<X1X1X1XoXi C Q #.;.:.;.;.q.P.8.:.:.#.E l % f c q s =X1X1X1X1X1X1X1X1X1X1X1X1X1X",
"1X1X1X1X1X1X1X1X1X1X1X1X1X1X>X-Xh.O R $.$.o.$.$.$.$.$.o.E % 2 v 2 * [.;X<X1X1X1X1X1X1X1X1X1X1X1X1X1X",
"1X1X1X1X1X1X1X1X1X1X1X1X1X1X1X1X{.G C n n n n n n n n n j O % h A J %X1X1X1X1X1X1X1X1X1X1X1X1X1X1X1X",
"1X1X1X1X1X1X1X1X1X1X1X1X1X1X1X1X1X;Xa . . . . . . X . . . . . . (.1X1X1X1X1X1X1X1X1X1X1X1X1X1X1X1X1X",
"1X1X1X1X1X1X1X1X1X1X1X1X1X1X1X1X1X,X[./././.j.(./.j././././././.+X1X1X1X1X1X1X1X1X1X1X1X1X1X1X1X1X1X"
};
