/* XPM */
static char *door2_resized[] = {
/* columns rows colors chars-per-pixel */
"50 50 240 2 ",
"   c None",
".  c #1B1D1D",
"X  c #1A231C",
"o  c #22251E",
"O  c #37281C",
"+  c #1B1E23",
"@  c #1C2223",
"#  c #1A2A2C",
"$  c #18292A",
"%  c #1A342B",
"&  c #1B2C31",
"*  c #143736",
"=  c #0F3A2F",
"-  c #242525",
";  c #2C2426",
":  c #23242A",
">  c #252D2C",
",  c #2A2D2E",
"<  c #252825",
"1  c #392C21",
"2  c #372929",
"3  c #27312D",
"4  c #252D31",
"5  c #2A2D32",
"6  c #2C2C38",
"7  c #342A36",
"8  c #253232",
"9  c #2A3034",
"0  c #273A39",
"q  c #34312A",
"w  c #261F2A",
"e  c #5A260C",
"r  c #422A1D",
"t  c #582D13",
"y  c #62250C",
"u  c #602407",
"i  c #792C0A",
"p  c #79340E",
"a  c #74360E",
"s  c #792C12",
"d  c #7C3412",
"f  c #773618",
"g  c #6C3014",
"h  c #432725",
"j  c #533830",
"k  c #683626",
"l  c #713021",
"z  c #2F453B",
"x  c #59412F",
"c  c #764738",
"v  c #6E4934",
"b  c #323C42",
"n  c #384749",
"m  c #365858",
"M  c #284949",
"N  c #397978",
"B  c #3A6567",
"V  c #4E585A",
"C  c #725447",
"Z  c #6B6556",
"A  c #746550",
"S  c #477779",
"D  c #5A7A7A",
"F  c #46656B",
"G  c #647C7A",
"H  c #787674",
"J  c #667065",
"K  c #84340D",
"L  c #8B380E",
"P  c #843413",
"I  c #893A17",
"U  c #933C14",
"Y  c #933D1A",
"T  c #9A3C19",
"R  c #953713",
"E  c #872D0D",
"W  c #8E3B24",
"Q  c #89451C",
"!  c #93421C",
"~  c #9C431B",
"^  c #9B471C",
"/  c #A4471C",
"(  c #B24F1F",
")  c #8B4626",
"_  c #944421",
"`  c #994925",
"'  c #9B5527",
"]  c #875537",
"[  c #985639",
"{  c #924D31",
"}  c #A64A26",
"|  c #AB5A2D",
" . c #AA5528",
".. c #B35425",
"X. c #B2552B",
"o. c #BB5D2C",
"O. c #B5592C",
"+. c #A95937",
"@. c #B35534",
"#. c #B45B33",
"$. c #BB5D33",
"%. c #BC5C3B",
"&. c #B05A3B",
"*. c #AE4C2A",
"=. c #AD6435",
"-. c #A9633C",
";. c #BA643A",
":. c #B3753F",
">. c #C45B2E",
",. c #C55C37",
"<. c #D35E32",
"1. c #C7693A",
"2. c #D86E3B",
"3. c #CD753C",
"4. c #D5743A",
"5. c #DC743D",
"6. c #DA783B",
"7. c #C4602C",
"8. c #E3763D",
"9. c #E1783E",
"0. c #E06E3F",
"q. c #8D5B47",
"w. c #AB5B43",
"e. c #976749",
"r. c #886B56",
"t. c #A86747",
"y. c #B56542",
"u. c #BA6B48",
"i. c #BC7449",
"p. c #B87456",
"a. c #AB6E53",
"s. c #AC7C65",
"d. c #CC6C42",
"f. c #C46B42",
"g. c #D56D46",
"h. c #CC7243",
"j. c #CD744A",
"k. c #C77547",
"l. c #D47544",
"z. c #DC7443",
"x. c #D3734B",
"c. c #DD7B4B",
"v. c #D87948",
"b. c #CA7A54",
"n. c #D37653",
"m. c #E27443",
"M. c #E47C4A",
"N. c #E97E4B",
"B. c #E67C46",
"V. c #E9794D",
"C. c #C97B61",
"Z. c #C25E46",
"A. c #38807A",
"S. c #5D817C",
"D. c #60817B",
"F. c #FA8A3F",
"G. c #B08C71",
"H. c #B9935C",
"J. c #D98652",
"K. c #EA8447",
"L. c #FE8646",
"P. c #FD854C",
"I. c #F78848",
"U. c #E98251",
"Y. c #FC8350",
"T. c #F48B54",
"R. c #F59854",
"E. c #E9A35B",
"W. c #FAA85E",
"Q. c #C69565",
"!. c #E99E64",
"~. c #D4A562",
"^. c #E6A767",
"/. c #F9A562",
"(. c #FBA963",
"). c #F1A665",
"_. c #FCB071",
"`. c #5B7E85",
"'. c #677C85",
"]. c #3D9D9B",
"[. c #3D9C91",
"{. c #3A8787",
"}. c #3AA29C",
"|. c #5B8588",
" X c #449D9B",
".X c #4A9794",
"XX c #5B9A99",
"oX c #508C88",
"OX c #668585",
"+X c #74888C",
"@X c #67969A",
"#X c #73959A",
"$X c #6F948C",
"%X c #42A19D",
"&X c #54A59C",
"*X c #5E9BA6",
"=X c #6899A6",
"-X c #7293A2",
";X c #719CAD",
":X c #619FB2",
">X c #48AAA6",
",X c #5AA6A8",
"<X c #4AB5AC",
"1X c #54B2AB",
"2X c #5AA9B2",
"3X c #4BB8B5",
"4X c #5BBBBD",
"5X c #5AB6B4",
"6X c #65A4AA",
"7X c #64AAB4",
"8X c #67B6B9",
"9X c #6DB2B1",
"0X c #60A091",
"qX c #58C4BC",
"wX c #4DCABF",
"eX c #67C1B9",
"rX c #56BBC5",
"tX c #67BDC3",
"yX c #75BEC4",
"uX c #5DCCCB",
"iX c #57C4C6",
"pX c #5AD8D9",
"aX c #5ECED0",
"sX c #63C4C3",
"dX c #66C7C9",
"fX c #65C8D3",
"gX c #65D5D7",
"hX c #6CCEC9",
"jX c #5CE2DF",
"kX c #58DFE1",
"lX c #5DE3E2",
"zX c #64E0E5",
"xX c #8D918F",
"cX c #C9A89A",
"vX c #E0C7BF",
"bX c #E3DDDA",
"nX c #FBFEFD",
"mX c #FAF2F3",
"MX c #EBEAE4",
"NX c #E1D6DC",
/* pixels */
"                                        N {.>X}.[..XB r ' ' =.f Q { q.                              ",
"                              z S.5X3X3XgXiX4X8X6X$XA :.F.R.E.'  .c.+.W ]                           ",
"                        N A.5X5X5X7X7X7XqXgX7XD.r.=.6.T._.E.3.Q | N.,.I ;.t.a.                      ",
"                      &X5X4XdXdX5X6X@XOXB S F x +.K.R./.J.K.3.^ *.V.y.I 4.f.) C                     ",
"                  gXgX4X6X-X#X0X&XS b & & w O g >.I.E.!.! 4.3.^ ..M.,.Y l.f.) A D.OX                ",
"                ;X;X8XuX7XF V 0 $ & 4 4 5 q t -.F.I.E.~.^ 4.v.^ ..N.,.Y v.d.Y k J 0XS.OX            ",
"            3X6X#X#X@X`.m & # > q q , 5 , O g 1.I.R.).J.U 4.c./ ..N.=.Y m.g.! s C $X5X&XB           ",
"              tX6X'.m 4 4 4 6 5 > > 8 5 2 l f.I.N./.^.=.L 4.c.} X.N.+.Y z.h.T @.t.Z eXqXA.#X        ",
"        eX,X*X8XD 0 $ & 4 5 5 5 5 , 5 5 r g 1.I.L.W.^.=.U 5.c.` ..M.&.I 3.6.~ %.=.v $X,XdXB +X      ",
"      qX7X=X#X'.b . 5 9 5 5 5 5 , % 4 7 t T 8.L.I./.^.-.R 5.m.` ..M.@.Y l.6.T ,.1.] H *X7X8XS G     ",
"    >XiXdX8X@Xb w , 5 7 5 7 5 5 4 % 5 2 l g.L.I./.^.k.;.T z.x._  .K.%.Y v.5.~ $.M.+.C 7XsXiX}.S     ",
"  &XsX1X9X;XM $ > , 5 5 5 5 5 5 9 9 5 h f z.F.F.(.!.f.y.R l.l.!  .M.;.T v.5.~ o.K.X.v 0X7X2XpXN n   ",
"  .XyX;X-X+X# o , 5 5 5 5 5 5 5 , 5 q r p 5.F.F./.!.k.y.Y g.l._  .N.-.Y z.z.~ O.K.>.y 7 `.=XhXN m   ",
"  8X9X6XXXn : > 5 5 5 5 5 5 5 5 5 5 5 1 p 8.N.1.%.=.` ) P d.1.U X.V.&.Y v.d.~ o.M.| y ; |.2XtX2XoX  ",
"aXjXpXaX,X# & 8 5 5 5 5 5 5 5 5 5 5 5 1 p 2.( %.h.d.g.1.} *.*.L ~ ;.` U v.f.Y ;.c.| y , 2XfXaXzX%X= ",
"qXaX2X;X'.@ @ 8 4 5 5 5 5 4 5 5 5 5 6 1 p 2./ 1.v.;.i.b.n.b.j.1.#.=.} L ( } K O.n. .t < |.;X*XaX X= ",
"qXdX=X-XG X X 9 9 5 5 5 5 5 4 5 5 5 5 1 p 6.m.$.~ a W t.w.-.p.n.n.b.b.f.f.u.' ` ( T e O S.#X*XfX.X= ",
"wXpXiXsXXX# : 5 5 5 5 5 5 5 5 5 5 5 9 1 p m.T.T.j.+.W E s f ) +.{ -.s.u.u.b.b.x.l.1.} v @XeXiXpX%X* ",
"wXpXrX8XXX# w 7 6 , , , , 5 5 5 9 9 7 1 a 8.P.T.(.^.u.+.P | ~ i E p f Q Q -.y.-.p.Q.a.k +X9X4XkX].= ",
"5XsX6X@XG X - 8 , , , , , 5 , 5 5 9 7 1 a 8.P.P.(.^.3.y.U l.d.Y *.:.I i Y I p i W w.{ j '.-X=XfX].  ",
"3XdX7X6XD.@ > 8 , , , , , 5 5 5 4 9 7 1 a m.P.P.(.).g.&.U 5.2.! X.c.O.I j.O.K ^ _ i e ; |.6X:XfX].  ",
"3XlXfXhX,X& : 7 9 , 9 , 5 5 5 5 5 5 5 1 a 8.P.P./.^.p.{ P g.l.! ..N.#.Y n.3.U $.J.} y , ,XhXuXkX}.  ",
"qXaX,X=X|.X > 8 9 q , 9 5 , , 5 4 5 5 1 a 8.P.P.(.Q.r.A v n.j.) X.V.,.Y n.1.U $.b. .u < |.=X,XdX>X  ",
"1XeX*X=XS.X < 3 9 , , , 4 5 5 5 5 9 6 1 a m.P.P._.H.Z xXC b.x.! X.N.y.! z.d.U ;.J.X.e < `.#X-XfX].  ",
"<XpXtXyXXX$ : 6 5 5 5 5 5 5 5 5 5 9 9 1 p 8.P.Y.(.Q.r.H c x.v.~ X.K.$.! 8.g.! o.N.#.y , XX8XtXgX}.  ",
"<XpXrXsX*X$ : 7 7 5 5 5 5 5 5 5 5 5 9 1 a m.P.Y.(.^.e.x l v.m.} X.N.$.U m.l.! o.U.#.e > &XqXrXpX>X  ",
"1XeX*X-X'.X - , , 5 5 5 5 5 5 5 , 5 9 1 d 9.P.Y.(.^.a.x f z.m.} X.B.O.U z.v._ o.N.%.y ; '.@X*XfX%X  ",
"1XsX2X6X|.@ < , 5 5 9 5 5 5 5 5 , 5 9 O p 8.P.Y.(.^.e.x f z.m./ X.B.#.! 5.g.Y o.M.X.e < |.;X=XfX X  ",
"3XkXgXfX6X# # 5 9 9 9 5 5 5 5 5 5 5 4 O p 8.P.P.(.^.e.j l l.m.} X.B.,.! 5.d.! o.N.#.y , ,XuXuXpX}.  ",
"<XuX6X;XOX. : 5 , , 5 9 5 4 5 6 5 5 5 1 p 9.P.T.(.~.A Z c x.c._ X.N.7.T m.d.W >.U.#.y ; |.=X,XfX X= ",
"<XdX=X-XD X ; q , 9 9 5 5 5 5 5 5 5 5 1 d 8.P.P._.H.Z xXC x.g.Q  .N.,.R m.x.T ,.U.$.y - `.-X=XfX].= ",
"<XpXiXtXXX$ # 6 , 5 5 5 5 5 5 5 4 5 5 1 a 6.P.P.(.Q.A H c x.l.)  .N.$.T 8.x._ >.N.O.y < XX8XtXgX].= ",
"<XpXrXsXXX$ & 8 8 5 , 9 5 5 5 6 5 , 5 1 p 8.P.Y.(.^.t.q.W 4.l.~ X.M.| ! z.j.Y o.M. .e > XX4XqXgX].* ",
"<XuX=X-X'.. # , 3 5 5 5 5 5 5 5 5 9 4 1 p 8.P.Y.(.E.d.u.R 4.5./ X.v.| U z.f.Y ;.v.` y 1 '.#X=XfX X* ",
"<XuX*X=X'.@ o 9 4 5 5 5 5 5 5 5 5 , 5 1 d 8.P.V.(.^.x.%.R z.m.} ..v.#.Y j.@.P ~ $.#.} f C +X=XfX X* ",
"<XpXuXhX,X% o 5 6 5 5 9 5 5 5 5 5 9 5 1 d 8.P.P.(.^.b.w.I 4.d.W } 1.^ Y  .;.d.1.3.v.d.+.x #XhXpX].* ",
"<XaX2X6XOX+ o 7 5 5 5 5 5 5 5 5 4 8 6 h P 6.P.N.W.^.1.` P ..O.@.X.,.l.h.j.J.b.p.p.a.[ [ A OX6XhX.X* ",
",XfX;X-X'.+ < 8 4 5 5 5 5 5 5 5 8 8 5 h d 6.K.2.o.| *.;.;.1.j.n.z.n.C.a.t.a.[ I ) P y h D.$X=XdX X* ",
"<XpX4X9X*X$ @ 5 5 5 4 5 5 5 5 5 3 3 , r d 3...,.v.k.j.C.p.:.J.a.+.+.[ d s d i I W I e 4 XX8XrXpX X* ",
"3XpXrX8X@X$ @ 6 6 5 5 5 5 5 5 4 4 4 7 h K 3./ <.x.;.u.p.{ ! ) f s E i s X.*.P #.V.@.e > XXtXrXkX}.* ",
"<XdX*X=X`.+ - , 5 5 5 5 5 5 5 5 3 8 5 h P 5.6.7.T K P f i L L i } d.@.Y m.x.~ o.N.#.e - `.-X*XtX.X& ",
",X9X@X+XD + - , , , 5 , > , > > , , 5 2 s 5.I.Y.l.=.} _ K 4.l.! O.M.%.! m.m.T o.M.| e - D @XXXtX.X0 ",
"  m n n 0 . . - - - - - - : : - > < 5 h d 8.L.P.(.).x.y.U 5.c.^ X.M.| Q z.g.T o.x.*.v b V V V F S   ",
"                                        { 8.L.L.W.^.j.y.R 2.m./ ..c.| ! 5.d.Q ` p.cXNXbXNXNXNX      ",
"                                        ) m.L.L.W.E.k.y.U 2.c.` X.K.| I i.t.G.cXNXmXnXnX            ",
"                                        ) m.L.F.W.E.i.y.U 2.z.~ O.v.-.[ a.cXmXnXmXnXnX              ",
"                                        { m.L.L.W.^.i.w.U 5.d.{ { t.s.                              ",
"                                        ) m.L.L./.).f.-.P ;.t.s.                                    ",
"                                        ] g.Y.K.(.^.-.r.q.e.                                        ",
"                                        H.+.} } [ ] q.G.                                            "
};
