/* XPM */
static char *door1_resized[] = {
/* columns rows colors chars-per-pixel */
"50 50 247 2 ",
"   c None",
".  c #17130C",
"X  c #2A180D",
"o  c #2C1412",
"O  c #2C1B12",
"+  c #271713",
"@  c #331915",
"#  c #31140C",
"$  c #272418",
"%  c #3A2719",
"&  c #3F210F",
"*  c #123D35",
"=  c #263732",
"-  c #32302B",
";  c #181B21",
":  c #4B1E10",
">  c #57260C",
",  c #462516",
"<  c #5B2815",
"1  c #5B3317",
"2  c #4D230E",
"3  c #6B290B",
"4  c #752B05",
"5  c #792B06",
"6  c #762B0B",
"7  c #7C2B0B",
"8  c #762608",
"9  c #76330B",
"0  c #672914",
"q  c #693717",
"w  c #76351B",
"e  c #793818",
"r  c #702E11",
"t  c #4E342D",
"y  c #6C3422",
"u  c #743C2C",
"i  c #611F0A",
"p  c #15463D",
"a  c #2A403B",
"s  c #464338",
"d  c #794837",
"f  c #714D34",
"g  c #7A411F",
"h  c #164B45",
"j  c #1E4B46",
"k  c #154D49",
"l  c #1F4A4C",
"z  c #1A4343",
"x  c #145149",
"c  c #115350",
"v  c #234A4A",
"b  c #384E45",
"n  c #305352",
"m  c #376867",
"M  c #31736F",
"N  c #464A49",
"B  c #445757",
"V  c #4A534D",
"C  c #6C524B",
"Z  c #52625D",
"A  c #746858",
"S  c #6E6855",
"D  c #486767",
"F  c #4A736C",
"G  c #4B6C75",
"H  c #487876",
"J  c #577A7A",
"K  c #536B6F",
"L  c #667A76",
"P  c #71766C",
"I  c #455B63",
"U  c #833A14",
"Y  c #893917",
"T  c #953B19",
"R  c #862B0B",
"E  c #823C21",
"W  c #983D21",
"Q  c #94421C",
"!  c #9B441D",
"~  c #99471B",
"^  c #88431B",
"/  c #A5461D",
"(  c #A44A1D",
")  c #8B4623",
"_  c #954423",
"`  c #9B4523",
"'  c #954B24",
"]  c #9B4A24",
"[  c #9C4629",
"{  c #9C4B2B",
"}  c #944929",
"|  c #9B5429",
" . c #984C32",
".. c #875735",
"X. c #9B5735",
"o. c #8A4C2D",
"O. c #A14624",
"+. c #A34A24",
"@. c #AB4E23",
"#. c #A74C2A",
"$. c #B44D28",
"%. c #AD5226",
"&. c #AC532B",
"*. c #A5542A",
"=. c #B15226",
"-. c #B3532C",
";. c #BA542C",
":. c #B6592E",
">. c #A35532",
",. c #A35934",
"<. c #AD5C34",
"1. c #A45439",
"2. c #A85738",
"3. c #B35B34",
"4. c #B55938",
"5. c #B24E31",
"6. c #AF633A",
"7. c #B3633C",
"8. c #BC653B",
"9. c #BD6A3D",
"0. c #B86536",
"q. c #9A613F",
"w. c #C85F34",
"e. c #C96133",
"r. c #C3653C",
"t. c #C36A3D",
"y. c #CC6A3D",
"u. c #C56437",
"i. c #D26C3D",
"p. c #DB6B3F",
"a. c #D3703D",
"s. c #C9632E",
"d. c #8B5C47",
"f. c #8F594A",
"g. c #A75E42",
"h. c #936650",
"j. c #A96647",
"k. c #BC6644",
"l. c #B46B43",
"z. c #BC6A44",
"x. c #BD6649",
"c. c #BB6A4A",
"v. c #B46947",
"b. c #BE714E",
"n. c #B57052",
"m. c #947164",
"M. c #A37A69",
"N. c #C36644",
"B. c #C36B44",
"V. c #CC6C44",
"C. c #C46C4A",
"Z. c #CB6C4A",
"A. c #C96744",
"S. c #D26D43",
"D. c #D26C4B",
"F. c #DA6C42",
"G. c #C47245",
"H. c #CA7145",
"J. c #C5724B",
"K. c #CB724B",
"L. c #CE7B4B",
"P. c #D27145",
"I. c #DD7C4C",
"U. c #D77748",
"Y. c #C76D51",
"T. c #CA7453",
"R. c #C67754",
"E. c #DB7D52",
"W. c #D47B55",
"Q. c #E27B4B",
"!. c #E67848",
"~. c #E27B52",
"^. c #E67A53",
"/. c #C05C40",
"(. c #3E8077",
"). c #5E866F",
"_. c #84807B",
"`. c #CC875D",
"'. c #D4825B",
"]. c #D38249",
"[. c #E58153",
"{. c #E3804C",
"}. c #D88464",
"|. c #4C7680",
" X c #737C8C",
".X c #3E8B83",
"XX c #498786",
"oX c #588888",
"OX c #489994",
"+X c #599594",
"@X c #50938E",
"#X c #67878A",
"$X c #688B96",
"%X c #68979C",
"&X c #759697",
"*X c #759093",
"=X c #4AA59D",
"-X c #51AC9F",
";X c #5C9CA8",
":X c #4C9DA2",
">X c #6595A5",
",X c #6C94A3",
"<X c #6B9CAC",
"1X c #669BA7",
"2X c #7391A1",
"3X c #7597A7",
"4X c #7190A8",
"5X c #5AA6A9",
"6X c #5AB3AD",
"7X c #5DAAB3",
"8X c #4BBBB6",
"9X c #4EBBBB",
"0X c #4DB5B4",
"qX c #53BCB5",
"wX c #53BCB9",
"eX c #58B7B7",
"rX c #63A3AB",
"tX c #66A6AA",
"yX c #67A6B3",
"uX c #64B8BA",
"iX c #6CAFB0",
"pX c #49C4BB",
"aX c #52C1BB",
"sX c #57C5BD",
"dX c #62C1BC",
"fX c #5CBCC4",
"gX c #56BAC5",
"hX c #4BB8C0",
"jX c #63BBC3",
"kX c #69B4C3",
"lX c #6CBDCA",
"zX c #54C4C4",
"xX c #5CC4C4",
"cX c #5BC3CA",
"vX c #5BD2CC",
"bX c #54D2CC",
"nX c #5CDBD7",
"mX c #51C5C7",
"MX c #67C7C7",
"NX c #73CBCA",
"BX c #64D2CB",
"VX c #65DAD8",
"CX c #6DCCD1",
"ZX c #5DE2DB",
"AX c #64DFDF",
"SX c #FAF5EE",
"DX c #F9F6F0",
/* pixels */
"                                        I z   h p * * * *                                           ",
"                                  H m m :XxXwX9X8X0XeXeXeX=XM M F                                   ",
"                            J D H 6XxXsXvXcXjXyX<X<XyXwXvXvXxXsX6X(.m                               ",
"                        H +X0XnXMX5X%X;X;XuXNX1X$X2X;XCXjX;X<X<X5XMXVX0X=XXX                        ",
"                    =X5XrXuXuXfXMXrX$X X#XK n = = - = b F #X X$XiXMXfXkXkX6X6X6X                    ",
"                H 6XVXBX7X4X4X,X@XOXn % % , < i 0 > 3 i , $ $ b #X@X%X4X4X6XvXvX6XJ                 ",
"              oXtXyX<XkXlX;XK C , & < < < U #.T Q ^ Q ` U 0 0 < , % b B +XMXsX5X<XiXXX              ",
"          G 5XqX5X2X4X>X|.N % 2 0 7 } >.Y =.E.A.t.9.k.N.W ` 4.{ 9 3 > : s J %X&X,X<X6X=Xm           ",
"          |.VXbXyX2X#XV , > e ^ 1.4.k.R.+.&.].z.9.l.v.n.Q ;.[.V.u.=.Y e 0 % B #X,X7XbXVXM F         ",
"        .XcXyXyXlXoXa > 8 @.H.t.N.N.k.H./ &.E.t.z.z.z.c.Q $.!.V.T.S.e.t.] 3 2 t J MXwX5XsXXXB       ",
"      H :XjX4X4X+X= 2 Y Y =.[.P.C.N.A.P./ &.E.B.B.G.z.z.~ $.!.t.C.D.P.H.[ T ) : - oX1X>XuXOXF       ",
"    v OXMX;X<X#XN % 0 2.` @.Q.y.Z.C.Z.V./ &.E.t.H.K.c.z._ ;.!.8.c.D.P.G.O.:.k.0 : N #X3XrXMXOXI     ",
"    +XuXxXvXjXJ % >  .v.` @.I.y.Z.Z.Z.V.` -.E.V.Z.U.A.z.! -.!.8.c.Z.S.B.! ;.U.{ < @ F uXBXcXeX+XB   ",
"    -XxX%XtXXX= 1 e 7.c.` @.{.y.C.K.K.B.` 2.~.y.P.P.A.z._ -.!.k.c.Z.V.C._ -.I.6.Y < $ (.5X;XjX5Xa   ",
"  p =XMX%X2XK @ 0 ,.C.c.` @.I.t.z.J.B.r.] &.Q.i.F.P.B.N.! ;.Q.8.v.N.V.B.` :.^.N.g.r O K ,X4XjX6Xv   ",
"F OXeX6X-X).s > e 3.z.z.] @.Q.u.B.J.z.9.Q &.I.S.D.C.J.t.T 5.~.r.9.t.S.P.` ;.!.t.3.e 2 t |.;X0XeX+X  ",
"j 8XVXvXCX@X$ e B.A.c.n.] %.].t.l.c.l.z.' %.Q.S.Z.C.J.B.! -.E.x.l.z.Z.K.[ :.E.l.l.>.y + XXNXBXVXsXh ",
"x 8XmXrX<XG O U !.V.c.c.O.=.~.t.z.z.k.B.~ %.{.a.t.N.B.V.! -.^.N.z.9.V.Z.~ :.Q.9.8.k.w # D <X7XzXaXp ",
"l aXgX4X3XP , 9 %.( {  .Y T <.|  . .{ { U Q :.*.#.{ { #.Y W 5.{ | } #.{ U Q =.+.` ' q > S 2X>XfXaXx ",
"l 9XgX<XP f.k.u.e.t.t.r.w.e.s.s.8.N.y.u.u.s.s.s.u.8.r.e.w.w.w.u.0.r.w.e.u.t.u.9.9.u.r.x.X.L 5XmXpXx ",
"l 9XnXCX)...[.F.K.J.`.`.Z.H.H.J.R.}.W.K.T.J.G.G.R.}.R.C.C.Z.Z.J.R.'.W.B.C.A.T.b.`.L.S.D.} L MXVXmXx ",
"l 9XxX3XP d.8.-.#.X.X.X.X.| | >.1.2.X.*.1.>.| | X.2.2.>.X.>.X.,.>.,.X.*.2.1.g.1.X.,.5.1.d L 1XxXpXh ",
"k 8XgX%X&XS 2 4 R 9 3 3 3 4 4 4 6 3 4 4 8 8 R 5 4 8 5 5 5 5 5 5 5 8 5 5 4 5 7 7 9 4 8 : S *X4XfXaXh ",
"j 8XcX1XtXF + e 0.<.| X.^ ! 8.4.2.>.X.,.T O.:.:.<.>.>.3.T ` 7.>.*.>.>.,.Y +.r.:.<.>.r + G rXrXzXpXh ",
"j 8XAXCXNXoX$ u W.B.C.Y.W -.[.U.Z.A.c.z.{ -.^.S.C.z.z.K.( &.W.N.z.z.c.c._ :.[.D.K.z.w + XXNXBXZXaXp ",
"l 8XgX5XrXG O U I.b.h.j.[ &.I.i.D.Z.k.l.` ;.!.F.H.l.J.P./ =.W.B.z.z.z.c._ ;.^.S.H.z.e o D rX:XzXqXp ",
"l 9XfX,X1XG X ^ E.g.P h.w &.E.y.A.Z.c.z.` =.!.S.H.B.G.H.~ -.I.8.z.N.z.k._ ;.^.F.H.t.e # B ,X>XkXeXh ",
"l 9XcXyXyXG O e D...P A y >.E.t.A.Z.A.C.~ =.I.N.J.y.a.G.) -.Q.9.z.Z.t.l.} -.!.P.V.9.e o F tXyXMXaXk ",
"l hXVXBXBX@X$ U F.n.C A o.5.^.r.B.A.Z.C.` =.I.z.C.P.a.G.) -.Q.9.c.Z.r.9.[ :.Q.S.V.t.e @ J vXvXZXpXx ",
"v wXfX1XiXG O R U.J.C d. .$.^.t.k.C.Z.G.~ =.I.B.z.H.a.z.) -.Q.9.z.Z.t.k.} :.!.P.H.8.e o D 5X;XlXaXh ",
"l hXgX2X4XG O U I.C.C f.W 5.^.B.z.k.A.G.` =.Q.z.B.V.P.B._ -.Q.z.C.Z.B.z._ ;.!.i.H.0.e o D ,X4XkXwXk ",
"l 9XcXrXyXG & Y I.c.f d.O.$.].l.l.N.Z.V.' =.[.z.N.i.P.N.) -.Q.t.C.D.t.z.[ ;.!.V.V.3.e o D rXyXjX9Xh ",
"l hXAXvXBXXX$ U U.v.A A ^ %.I.9.l.l.C.V.] =.I.B.B.P.P.B.! &.Q.t.Z.D.S.N._ ;.Q.y.D.t.w + J BXbXnXpXx ",
"l hXxX,X3XK O g b..._.A 1 ( '.9.l.j.z.D./ %.E.t.t.Z.K.C.Q &.Q.S.Z.Z.S.G.! :.I.A.D.N.e + D %XrXwXaXh ",
"v 8XgX2X3XD X e L.j.A A g #.^.t.l.v.c.Z.( =.E.B.t.C.B.C.Q &.!.V.Z.Z.a.t.) <.].z.K.7.e o Z %X<XjXaXh ",
"j 9XcXrXiXF O U I.B.h.j.} $.^.t.k.v.z.V.( -.E.t.z.z.z.z.Q =.!.S.C.V.i.B.! :.].9.C.7.w + D tXyXlXpXh ",
"j 9XVXBXCX@X$ U !.S.x.n.~ %.I.N.x.v.z.K.( &.E.9.9.k.z.c.T -.Q.P.c.B.i.A.! ;.I.t.z.6.q . H NXCXVXpXx ",
"v qXgX1X1XG X U p.a.v.v.~ #.I.N.x.x.z.G.! *.W.z.k.k.k.c.` ;.Q.V.C.N.y.V.O.;.U.B.z.7.q + Z %X;XMX9Xk ",
"j 9XfX4X&XS 1 U $.( ' ' Y T &.[ [ ` ` +.Y Q #.+.] ` ` ` T T $.@.[ +./ +.T T %.` [ _ Y 0 S *X>XuXaXx ",
"l hXlXtXP ..a.P.S.V.L.G.V.V.V.H.G.K.H.H.H.y.V.V.H.K.K.Z.V.y.y.H.H.H.H.V.D.y.V.Y.T.Y.D.P...L <XlXsXk ",
"v 9XVXNXP ..}.K.B.K.W.R.n.C.Y.b.b.`.R.C.G.B.K.V.J.'.T.C.C.J.J.J.R.W.T.C.C.Z.A.T.'.J.A.V.) ).CXAXaXk ",
"l 9XzX%XP h.2.~ ' ' | ' ' { [ ' ' } | } ' ' ] ] ' | } } ] ~ ' ] } ' { } ` [  .} o.| ]  .f ).,XlXaXk ",
"j aXwX,X3XK % 3 9 9 5 6 8 7 R 7 6 9 8 8 4 5 5 5 9 9 9 5 5 5 R 5 7 7 7 7 8 r 7 e 9 9 3 : Z &X$XkX8Xh ",
"j 8XzXyXiXF O e y.y.9.6.T ` B.7.<.7.0.3.^ +.B.3.6.6.7.4.T *.B.3.u.4.0.7.T *.G.0.<.,.w + G 6X6XMXpXx ",
"j wXnXCXNXoX$ U !.p.K.J.] &.E.N.C.Z.C.c.! &.E.y.K.K.T.Z.! &.I.r.V.V.Z.C.Q :.].t.t.8.w o J NXMXVXpXx ",
"l 0XmX>X<XG @ e !.a.G.H.( @.I.t.V.A.N.C.` @.Q.i.Z.C.Z.C.! &.^.r.z.B.Z.C.} ;.L.9.9.4.w X D 1X;XeX8Xh ",
"l 6XqX%X&XK O E I.i.A.K.+.&.[.H.D.A.N.C.~ =.Q.a.K.z.Z.P.] <.E.k.z.N.N.x.} ;.E.z.9.7.y O Z 1X1XuXeXp ",
"n +X@XJ J B + q x.w.4.g.Y ) C.7.2.g.g.g.E _ G.7.7.g.6.l.Y [ N.4.<.4.4.2.Y { c.g.j.X.1 + B L L $X%X  ",
"    b N N V s C h.m.m.M.m.m.M.M.M.M.M.M.m.h.m.f.d.d.d...f u f.u f d u u y < u y y 1 @ . ;           ",
"                        SXSXSXSXSXSXSX                                                              "
};
