/* XPM */
static char *enemy_resized[] = {
/* columns rows colors chars-per-pixel */
"50 50 91 1 ",
"  c #040000",
". c #0C0100",
"X c #130604",
"o c #150806",
"O c #160B08",
"+ c #190D0B",
"@ c #1C100E",
"# c #151310",
"$ c #1E1311",
"% c #161A17",
"& c #1B1916",
"* c #161C19",
"= c #1E1D1A",
"- c #211614",
"; c #2C1716",
": c #241816",
"> c #261B19",
", c #281D1B",
"< c #26211F",
"1 c #2B201E",
"2 c #2F2422",
"3 c #302624",
"4 c #352A28",
"5 c #392F2D",
"6 c #39312F",
"7 c #3E3433",
"8 c #441415",
"9 c #4B1315",
"0 c #521416",
"q c #7E0D15",
"w c #641115",
"e c #6B1115",
"r c #403634",
"t c #453D3C",
"y c #4C4342",
"u c #514644",
"i c #534A49",
"p c #5B5351",
"a c #5E5C5D",
"s c #605857",
"d c #645C5B",
"f c #68605F",
"g c #656365",
"h c #6A6361",
"j c #696768",
"k c #6B6869",
"l c #726C6A",
"z c #726F70",
"x c #757374",
"c c #7C7674",
"v c #7E7877",
"b c #7C797A",
"n c #8A0C14",
"m c #B50714",
"M c #B80B17",
"N c #CF0413",
"B c #DA0616",
"V c #F70012",
"C c #FF0012",
"Z c #827B7A",
"A c #86807F",
"S c #8E8887",
"D c #8F8A88",
"F c #958F8E",
"G c #95908F",
"H c #8F9090",
"J c #959392",
"K c #999493",
"L c #9E9C9C",
"P c #A39E9D",
"I c #A7A3A2",
"U c #ABA7A6",
"Y c #ACAAAA",
"T c #B1AEAD",
"R c #B3B0AF",
"E c #B6B3B2",
"W c #B9B6B5",
"Q c #BBBABB",
"! c #C3C0BF",
"~ c #C4C2C2",
"^ c #C9C7C6",
"/ c #CECCCC",
"( c #D2D1D1",
") c #DDDBDB",
"_ c #E0DFDE",
"` c #E2E1E1",
"' c #E8E7E7",
"] c #ECEBEB",
"[ c #F0EFEF",
"{ c #F3F3F2",
"} c none",
/* pixels */
"}}}}}}}}}}}}}}}}}}}}}}}}}}}}}}}}}}}}}}}}}}}}}}}}}}",
"}}}}}}}}}}}}}}}}}}}}}}}}}}}}}}}}}}}}}}}}}}}}}}}}}}",
"}}}}}}}}}}}}}}}}}}}}}}}}}}}}}}}}}}}}}}}}}}}}}}}}}}",
"}}}}}}}}}}}}}}}}}}}}}}}}}}}}}}}}}}}}}}}}}}}}}}}}}}",
"}}}}}}}}}}}}}}}}}}}}}}}}}}}}}}}}}}}}}}}}}}}}}}}}}}",
"}}}}}}}}}}}}}}}}}]dU}}}}}}}}}}Ud[}}}}}}}}}}}}}}}}}",
"}}}}}}}}}}}}}}}}}}.Z}}}}}}}}}}A.}}}}}}}}}}}}}}}}}}",
"}}}}}}}}}}}}}}}}Tf>yZ'}}}}}}'Zy,fY}}}}}}}}}}}}}}}}",
"}}}}}}}}}}}}}}}}k ,@+]}}}}}}]O@, l}}}}}}}}}}}}}}}}",
"}}}}}}}}}}}}}}{}Z+,:1lT}{}}Rl2:,Ov}}}}}}}}}}}}}}}}",
"}}}}}}}}}}}}}}}}l ,:, h}}}}h ,:>oc}{}}}}}}}}}}}}}}",
"}}}}}}}}}}}}}}}}Eh,:;-yPKKPy$::,Ov}}}}}}}}}}}}}}}}",
"}}}}}}}}}}}}}}}}}}3$%*#XXXX$:::> l}}}}}}}}}}}}}}}}",
"}}}}}}}}}}}}}}}}/K<8ee0>,,,::::,sU}}}}}}}}}}}}}}}}",
"}}}}}}}}}}}}}}}}l.*nCCm%:::::>$2{}}}}}}}}}}}}}}}}}",
"}}}}}}}}}}}}}}}}v+*wmmq&:::::>:2'}}}}}}}}}}}}}}}}}",
"}}}}}}}}}}}}}}}}l.>:%&&:::&&&:@:]}}}}}}}}}}}}}}}}}",
"}}}}}}}}}}}}}}}}Jr,::::::;998-5p]}}}}}}}}}}}}}}}}}",
"}}}}}}}}}}}}}}}}}],@>>>$%0VVBoK}{}}}}}}}}}}}}}}}}}",
"}}}}}}}}}}}}}}}}}]y3$>,4=9NNMOJ}}}}}}}}}}}}}}}}}}}",
"}}}}}}}}}}}}}}}}}}}Go-tH5-::;.G}}}}}}}}}}}}}}}}}}}",
"}}}}}}}}}}}}}}}}}}}Ko-tJ6$>:,>P}}}}}}}}}}}}}}}}}}}",
"}}}}}}}}}}}}}}}}}{}JX$tJ6$>@7]{}}}}}}}}}}}}}}}}}}}",
"}}}}}}}}}}}}}}}}}}}K@:tJ5$,@r}}}}}}}}}}}}}}}}}}}}}",
"}}}}}}}}}}}}}}}}}}}{)7$2>:>@7}}}}}}}}}}}}}}}}}}}}}",
"}}}}}}}}}}}}}}}}}}}}}7$:-:>@r}}}}}}}}}}}}}}}}}}}}}",
"}}}}}}}}}}}}}}}}}}}}}'KXWE+:15P}}}}}}}}}}}}}}}}}}}",
"}}}}}}}}}}}}}}}}}}}}}}E ))+>>.J}}}}}}}}}}}}}}}}}}}",
"}}}}}}}}}}}}}}}}}}}}}}]!}^@:>:7d]}}}}}}}}}}}}}}}}}",
"}}}}}}}}}}}}}}}}}}}}}}}}}(@::>oO]}}}}}}}}}}}}}}}}}",
"}}}}}}}}}}}}}}}}}}}}}}}}Si::>Ol~{}}}}}}}}}}}}}}}}}",
"}}}}}}}}}}}}}}}}}}}}}}}}7 >:,XI}}}}}}}}}}}}}}}}}}}",
"}}}}}}}}}}}}}}}}}}}}}}}}!Z>,,$yZ{}}}}}}}}}}}}}}}}}",
"}}}}}}}}}}}}}}}}}}}}}}}}}(.oO:O-'}}}}}}}}}}}}}}}}}",
"}}}}}}}}}}}}}}}}}}}}}}}}}`DJZ,:4]}}}}}}}}}}}}}}}}}",
"}}}}}}}}}}}}}}}}}}}}}}}}}}}}[1O@]}}}}}}}}}}}}}}}}}",
"}}}}}}}}}}}}}}}}}}}}}}}}}}}})@iS[}}}}}}}}}}}}}}}}}",
"}}}}}}}}}}}}}}}}}}}}}}}}}}}}{oL}}}}}}}}}}}}}}}}}}}",
"}}}}}}}}}}}}}}}}}}}}}}}}}}}~SOG}}}}}}}}}}}}}}}}}}}",
"}}}}}}}}}}}}}}}}}}}}}}}}}}}s XF}{}}}}}}}}}}}}}}}}}",
"}}}}}}}}}}}}}}}}}}}}}}'~^~/k77I}}}}}}}}}}}}}}}}}}}",
"}}}}}}}}}}}}}}}}}}}}}}(ajjjxbgQ}}}}}}}}}}}}}}}}}}}",
"}}}}}}}}}}}}}}}}}}}}}(YzxxxxbJ(}}}}}}}}}}}}}}}}}}}",
"}}}}}}}}}}}}}}}}}}}}}lakkkkgb}}}}}}}}}}}}}}}}}}}}}",
"}}}}}}}}}}}}}}}}}}}}}YLLLLLLY}}}}}}}}}}}}}}}}}}}}}",
"}}}}}}}}}}}}}}}}}}}}}}}}}}}}}}}}}}}}}}}}}}}}}}}}}}",
"}}}}}}}}}}}}}}}}}}}}}}}}}}}}}}}}}}}}}}}}}}}}}}}}}}",
"}}}}}}}}}}}}}}}}}}}}}}}}}}}}}}}}}}}}}}}}}}}}}}}}}}",
"}}}}}}}}}}}}}}}}}}}}}}}}}}}}}}}}}}}}}}}}}}}}}}}}}}",
"}}}}}}}}}}}}}}}}}}}}}}}}}}}}}}}}}}}}}}}}}}}}}}}}}}"
};
